<svg width="36" height="36" viewBox="0 0 36 36" fill="none" xmlns="http://www.w3.org/2000/svg">
<path d="M17.6133 28.3086C18.1406 28.3086 18.5625 27.8867 18.5625 27.3594V17.1641C19.6406 16.7773 20.4258 15.7344 20.4258 14.5156C20.4258 13.2969 19.6406 12.2539 18.5625 11.8672V8.58594C18.5625 8.10547 18.1406 7.68359 17.6133 7.68359C17.0859 7.68359 16.6758 8.10547 16.6758 8.58594V11.8555C15.5742 12.2539 14.7891 13.2969 14.7891 14.5156C14.7891 15.7344 15.5742 16.7773 16.6758 17.1641V27.3594C16.6758 27.8867 17.0859 28.3086 17.6133 28.3086ZM22.7109 21.2891C22.7109 22.5078 23.4844 23.5508 24.5742 23.9375V27.4062C24.5742 27.8867 24.9961 28.3086 25.5234 28.3086C26.0508 28.3086 26.4609 27.8867 26.4609 27.4062V23.9375C27.5508 23.5508 28.3359 22.5078 28.3359 21.2891C28.3359 20.0703 27.5508 19.0156 26.4609 18.6289V8.63281C26.4609 8.10547 26.0508 7.68359 25.5234 7.68359C24.9961 7.68359 24.5742 8.10547 24.5742 8.63281V18.6406C23.4844 19.0273 22.7109 20.0703 22.7109 21.2891ZM9.71484 28.3086C10.2422 28.3086 10.6523 27.8867 10.6523 27.4062V23.9375C11.7422 23.5508 12.5273 22.5078 12.5273 21.2891C12.5273 20.0703 11.7422 19.0273 10.6523 18.6406V8.63281C10.6523 8.10547 10.2422 7.68359 9.71484 7.68359C9.1875 7.68359 8.76562 8.10547 8.76562 8.63281V18.6289C7.67578 19.0273 6.89062 20.0703 6.89062 21.2891C6.89062 22.5078 7.67578 23.5508 8.76562 23.9375V27.4062C8.76562 27.8867 9.1875 28.3086 9.71484 28.3086ZM16.2422 14.5156C16.2422 13.7539 16.8516 13.1445 17.6133 13.1445C18.3867 13.1445 18.9844 13.7539 18.9844 14.5156C18.9844 15.2891 18.3867 15.8867 17.6133 15.8867C16.8516 15.8867 16.2422 15.2891 16.2422 14.5156ZM24.1523 21.2891C24.1523 20.5156 24.7617 19.918 25.5234 19.918C26.3086 19.918 26.8945 20.5156 26.8945 21.2891C26.8945 22.0625 26.3086 22.6602 25.5234 22.6602C24.7617 22.6602 24.1523 22.0625 24.1523 21.2891ZM8.33203 21.2891C8.33203 20.5156 8.94141 19.918 9.71484 19.918C10.4883 19.918 11.0859 20.5156 11.0859 21.2891C11.0859 22.0625 10.4883 22.6602 9.71484 22.6602C8.94141 22.6602 8.33203 22.0625 8.33203 21.2891Z" fill="#212121"/>
</svg>
