<?xml version="1.0" encoding="iso-8859-1"?>

<svg version="1.1" id="Layer_1" xmlns="http://www.w3.org/2000/svg" x="0px" y="0px"
	 viewBox="0 0 480 480" >

<path style="fill:#92C7D3;" d="M392.48,288.036c-0.992,0-37.672,0-37.672,0c0.656-8,1.096-7.976,1.104-12.2
	c0.112-37.696-25.048-70.776-61.856-78.888c-20.984-4.624-41.008-1.28-57.584,7.664c-20.216-30.088-53.72-50.424-92.104-52.768
	c-4.944-0.68-9.944-1.096-15.064-1.096C66.728,150.74,16,203.084,16,267.62c0,33.632,13.856,63.864,35.904,85.184
	c19.496,21.632,46.568,35.608,78.624,37.936c0,0,260.968,1.296,261.96,1.296c26.24,0,47.52-23.736,47.52-52
	C440,311.772,418.728,288.036,392.48,288.036z"/>
<g>
	<path id="SVGCleanerId_0_1_" style="fill:#92C7D3;" d="M129.992,476.284c-1.36,0-2.736-0.344-3.992-1.072
		c-3.832-2.208-5.144-7.104-2.928-10.928l28-48.496c2.208-3.832,7.112-5.144,10.928-2.928c3.832,2.208,5.144,7.104,2.928,10.928
		l-28,48.496C135.448,474.852,132.76,476.284,129.992,476.284z"/>
</g>
<g>
	<path id="SVGCleanerId_1_1_" style="fill:#92C7D3;" d="M177.992,476.284c-1.36,0-2.736-0.344-3.992-1.072
		c-3.832-2.208-5.144-7.104-2.928-10.928l28-48.496c2.208-3.832,7.112-5.144,10.928-2.928c3.832,2.208,5.144,7.104,2.928,10.928
		l-28,48.496C183.448,474.852,180.76,476.284,177.992,476.284z"/>
</g>
<g>
	<path id="SVGCleanerId_2_1_" style="fill:#92C7D3;" d="M33.992,476.284c-1.36,0-2.736-0.344-3.992-1.072
		c-3.832-2.208-5.144-7.104-2.928-10.928l28-48.496c2.208-3.832,7.104-5.144,10.928-2.928c3.832,2.208,5.144,7.104,2.928,10.928
		l-28,48.496C39.448,474.852,36.76,476.284,33.992,476.284z"/>
</g>
<g>
	<path id="SVGCleanerId_3_1_" style="fill:#92C7D3;" d="M81.992,476.284c-1.36,0-2.736-0.344-3.992-1.072
		c-3.832-2.208-5.144-7.104-2.928-10.928l28-48.496c2.208-3.832,7.112-5.144,10.928-2.928c3.832,2.208,5.144,7.104,2.928,10.928
		l-28,48.496C87.448,474.852,84.76,476.284,81.992,476.284z"/>
</g>
<g>
	<path id="SVGCleanerId_4_1_" style="fill:#92C7D3;" d="M225.992,476.284c-1.36,0-2.736-0.344-3.992-1.072
		c-3.832-2.208-5.144-7.104-2.928-10.928l28-48.496c2.208-3.832,7.112-5.144,10.928-2.928c3.832,2.208,5.144,7.104,2.928,10.928
		l-28,48.496C231.448,474.852,228.76,476.284,225.992,476.284z"/>
</g>
<g>
	<path id="SVGCleanerId_5_1_" style="fill:#92C7D3;" d="M273.992,476.284c-1.36,0-2.736-0.344-3.992-1.072
		c-3.832-2.208-5.144-7.104-2.928-10.928l28-48.496c2.208-3.832,7.104-5.144,10.928-2.928c3.832,2.208,5.144,7.104,2.928,10.928
		l-28,48.496C279.448,474.852,276.76,476.284,273.992,476.284z"/>
</g>
<g>
	<path id="SVGCleanerId_6_1_" style="fill:#92C7D3;" d="M321.992,476.284c-1.36,0-2.736-0.344-3.992-1.072
		c-3.832-2.208-5.144-7.104-2.928-10.928l28-48.496c2.208-3.832,7.112-5.144,10.928-2.928c3.832,2.208,5.144,7.104,2.928,10.928
		l-28,48.496C327.448,474.852,324.76,476.284,321.992,476.284z"/>
</g>


</svg>
