<?xml version="1.0" encoding="iso-8859-1"?>
<!-- Generator: Adobe Illustrator 19.0.0, SVG Export Plug-In . SVG Version: 6.00 Build 0)  -->
<svg version="1.1" id="Layer_1" xmlns="http://www.w3.org/2000/svg" xmlns:xlink="http://www.w3.org/1999/xlink" x="0px" y="0px"
	 viewBox="0 0 480 480" style="enable-background:new 0 0 480 480;" xml:space="preserve">
<path style="fill:#77B9C8;" d="M426.208,168.036c-1.12,0-42.648,0-42.648,0c0.744-8,1.24-13.624,1.256-18.408	c0.128-42.672-28.36-82.424-70.032-91.6c-23.752-5.232-46.424-2.6-65.184,7.528C226.712,31.492,188.792,7.9,145.328,5.244
	c-5.592-0.768-11.256-1.528-17.056-1.528C57.432,3.708,0,62.82,0,135.876c0,38.072,15.688,72.232,40.648,96.368	c22.072,24.488,52.72,40.272,89.008,42.904c0,0,295.432,1.448,296.552,1.448c29.712,0,53.792-22.288,53.792-54.28
	S455.912,168.036,426.208,168.036z"/>


<path id="SVGCleanerId_0" style="fill:#92C7D3;" d="M129.992,358.284c-1.36,0-2.736-0.344-3.992-1.072	c-3.832-2.208-5.144-7.104-2.928-10.928l28-48.496c2.208-3.832,7.112-5.144,10.928-2.928c3.832,2.208,5.144,7.104,2.928,10.928
	l-28,48.496C135.448,474.852,132.48,358.284,139.992,358.284z"/>
<path id="SVGCleanerId_1" style="fill:#92C7D3;" d="M177.992,358.284c-1.36,0-2.736-0.344-3.992-1.072	c-3.832-2.208-5.144-7.104-2.928-10.928l28-48.496c2.208-3.832,7.112-5.144,10.928-2.928c3.832,2.208,5.144,7.104,2.928,10.928
	l-28,48.496C183.448,474.852,180.76,358.284,187.992,358.284z"/>
<path id="SVGCleanerId_2" style="fill:#92C7D3;" d="M33.992,358.284c-1.36,0-2.736-0.344-3.992-1.072 c-3.832-2.208-5.144-7.104-2.928-10.928l28-48.496c2.208-3.832,7.104-5.144,10.928-2.928c3.832,2.208,5.144,7.104,2.928,10.928
	l-28,48.496C39.448,474.852,36.76,358.284,43.992,358.284z"/>
<path id="SVGCleanerId_3" style="fill:#92C7D3;" d="M81.992,358.284c-1.36,0-2.736-0.344-3.992-1.072 c-3.832-2.208-5.144-7.104-2.928-10.928l28-48.496c2.208-3.832,7.112-5.144,10.928-2.928c3.832,2.208,5.144,7.104,2.928,10.928
	l-28,48.496C87.448,474.852,84.76,358.284,91.992,358.284z"/>
<path id="SVGCleanerId_4" style="fill:#92C7D3;" d="M225.992,358.284c-1.36,0-2.736-0.344-3.992-1.072	c-3.832-2.208-5.144-7.104-2.928-10.928l28-48.496c2.208-3.832,7.112-5.144,10.928-2.928c3.832,2.208,5.144,7.104,2.928,10.928
	l-28,48.496C231.448,474.852,228.76,358.284,235.992,358.284z"/>
<path id="SVGCleanerId_5" style="fill:#92C7D3;" d="M273.992,358.284c-1.36,0-2.736-0.344-3.992-1.072
	c-3.832-2.208-5.144-7.104-2.928-10.928l28-48.496c2.208-3.832,7.104-5.144,10.928-2.928c3.832,2.208,5.144,7.104,2.928,10.928
	l-28,48.496C279.448,474.852,276.76,358.284,283.992,358.284z"/>
<path id="SVGCleanerId_6" style="fill:#92C7D3;" d="M321.992,358.284c-1.36,0-2.736-0.344-3.992-1.072
	c-3.832-2.208-5.144-7.104-2.928-10.928l28-48.496c2.208-3.832,7.112-5.144,10.928-2.928c3.832,2.208,5.144,7.104,2.928,10.928
	l-28,48.496C327.448,474.852,324.76,358.284,331.992,358.284z"/>
<path id="SVGCleanerId_7" style="fill:#92C7D3;" d="M369.992,358.284c-1.36,0-2.736-0.344-3.992-1.072
	c-3.832-2.208-5.144-7.104-2.928-10.928l28-48.496c2.208-3.832,7.104-5.144,10.928-2.928c3.832,2.208,5.144,7.104,2.928,10.928
	l-28,48.496C375.448,474.852,372.76,358.284,379.992,358.284z"/>
<path id="SVGCleanerId_8" style="fill:#92C7D3;" d="M417.992,358.284c-1.36,0-2.736-0.344-3.992-1.072
	c-3.832-2.208-5.144-7.104-2.928-10.928l28-48.496c2.2-3.832,7.112-5.144,10.928-2.928c3.832,2.208,5.144,7.104,2.928,10.928
	l-28,48.496C423.448,474.852,420.76,358.284,427.992,358.284z"/>
</svg>
