<svg width="36" height="36" viewBox="0 0 36 36" fill="marked" xmlns="http://www.w3.org/2000/svg">
<path d="M22.9677 20.1792C22.6139 20.4349 22.4668 20.8905 22.6044 21.3048L25.0146 28.5641C25.0146 28.5642 25.0146 28.5643 25.0147 28.5645C25.0844 28.7748 25.0988 28.9066 25.0985 28.9781C25.026 28.9506 24.9072 28.8911 24.738 28.7666C24.738 28.7665 24.7379 28.7665 24.7378 28.7664L18.5931 24.2404C18.2404 23.9806 17.7596 23.9806 17.4069 24.2404L11.2622 28.7664C11.0928 28.8911 10.9751 28.9505 10.9038 28.978C10.9048 28.9068 10.9209 28.7778 10.9909 28.5742L10.9909 28.5742L10.9945 28.5634L13.396 21.3038C13.5329 20.8897 13.3858 20.4347 13.0323 20.1792L6.84323 15.7063L6.84287 15.706C6.66178 15.5752 6.57088 15.4765 6.52802 15.4183C6.5938 15.3955 6.72491 15.3664 6.9525 15.369L6.95795 15.369L14.5509 15.4134C14.9883 15.4159 15.3767 15.1339 15.5095 14.717L17.8315 7.43075L17.8322 7.42843C17.8958 7.2272 17.9573 7.10932 18 7.04466C18.0427 7.10932 18.1042 7.2272 18.1678 7.42843L18.1685 7.43075L20.4905 14.717C20.6233 15.1339 21.0117 15.4159 21.4491 15.4134L29.0421 15.369L29.0474 15.369C29.2768 15.3664 29.4077 15.3951 29.4728 15.4172C29.4302 15.4753 29.3393 15.5744 29.1571 15.706L29.1568 15.7063L22.9677 20.1792Z" stroke="#020202" stroke-width="2" stroke-linecap="round" stroke-linejoin="round"/>
</svg>
