<svg width="107" height="53" viewBox="0 0 107 53" fill="none" xmlns="http://www.w3.org/2000/svg">
<path fill-rule="evenodd" clip-rule="evenodd" d="M13.6366 23.57C13.5276 23.4605 13.374 23.4075 13.2206 23.4265C13.0672 23.4456 12.9312 23.5345 12.8523 23.6674L4.4685 37.7837C4.32749 38.0212 4.40565 38.328 4.64307 38.469C4.8805 38.61 5.18728 38.5318 5.32829 38.2944L13.3828 24.7326L20.5645 31.9494L21.2734 31.244L13.6366 23.57ZM26.6877 24.803C26.5832 24.6972 26.437 24.6434 26.2888 24.6562C26.1406 24.6691 26.0058 24.7473 25.9211 24.8695L19.9445 33.4909C19.7872 33.7178 19.8436 34.0293 20.0706 34.1867C20.2975 34.344 20.609 34.2876 20.7663 34.0606L26.3997 25.9344L31.1228 30.7164C31.3168 30.9129 31.6334 30.9149 31.8299 30.7208C32.0263 30.5268 32.0283 30.2102 31.8342 30.0137L26.6877 24.803Z" fill="#20ACE9"/>
<path fill-rule="evenodd" clip-rule="evenodd" d="M21.5144 11.7841V9.42816H22.5144V11.7877C25.0322 12.0471 26.996 14.1748 26.996 16.7612C26.996 19.5226 24.7574 21.7612 21.996 21.7612C19.9518 21.7612 18.1942 20.5345 17.419 18.7771L14.8236 19.6046C14.5605 19.6885 14.2793 19.5432 14.1954 19.2801C14.1115 19.017 14.2568 18.7357 14.5199 18.6519L17.1096 17.8262C17.0352 17.483 16.996 17.1267 16.996 16.7612C16.996 16.4013 17.034 16.0504 17.1062 15.7121L14.4283 14.7692C14.1678 14.6775 14.031 14.392 14.1228 14.1315C14.2145 13.871 14.5 13.7342 14.7604 13.8259L17.4126 14.7598C18.1233 13.1345 19.6732 11.96 21.5144 11.7841ZM29.5388 14.9313C29.8034 14.8523 29.9539 14.5737 29.8749 14.3091C29.7959 14.0445 29.5174 13.8941 29.2528 13.973L26.6635 14.7459L26.9495 15.7041L29.5388 14.9313ZM19.4149 21.1077L17.9077 23.3491L17.0779 22.7911L18.5851 20.5497L19.4149 21.1077ZM17.0837 9.98937C17.3074 9.82742 17.62 9.87744 17.7819 10.1011L19.405 12.3426L18.595 12.929L16.972 10.6876C16.81 10.4639 16.8601 10.1513 17.0837 9.98937ZM27.148 10.8351C27.3273 10.6252 27.3026 10.3095 27.0927 10.1301C26.8827 9.95074 26.5671 9.97549 26.3877 10.1854L24.5713 12.311L25.3315 12.9606L27.148 10.8351ZM21.4371 24.5V21.9108H22.4371V24.5C22.4371 24.7761 22.2133 25 21.9371 25C21.661 25 21.4371 24.7761 21.4371 24.5ZM26.6736 18.7478L29.1083 19.6366L29.4513 18.6973L27.0166 17.8084L26.6736 18.7478ZM26.3102 23.5108L24.494 21.3854L25.2543 20.7357L27.0705 22.8611C27.2499 23.0711 27.2251 23.3867 27.0152 23.5661C26.8053 23.7455 26.4896 23.7207 26.3102 23.5108Z" fill="#E9A372"/>
<path d="M53.3848 5.36914C53.3717 5.40169 53.3457 5.46029 53.3066 5.54492C53.2676 5.62956 53.248 5.6849 53.248 5.71094C53.248 5.76302 53.2448 5.83138 53.2383 5.91602C53.2383 5.99414 53.2643 6.04297 53.3164 6.0625C53.2448 6.21224 53.1992 6.36523 53.1797 6.52148C53.1667 6.67122 53.1602 6.82747 53.1602 6.99023C53.1602 7.14648 53.1569 7.30599 53.1504 7.46875C53.1439 7.625 53.1178 7.77799 53.0723 7.92773C53.0983 7.9668 53.1048 8.01562 53.0918 8.07422C53.0853 8.1263 53.1016 8.16862 53.1406 8.20117C53.1081 8.25326 53.0885 8.30534 53.082 8.35742C53.0755 8.40299 53.0723 8.45182 53.0723 8.50391C53.0723 8.60807 53.082 8.70898 53.1016 8.80664C53.0299 8.91081 52.9941 9.02799 52.9941 9.1582C53.0007 9.2819 53.0039 9.40885 53.0039 9.53906C53.0039 9.64974 52.9876 9.75716 52.9551 9.86133C52.929 9.96549 52.916 10.0729 52.916 10.1836C52.916 10.2161 52.9193 10.2454 52.9258 10.2715C52.9323 10.2975 52.9355 10.3268 52.9355 10.3594C52.9355 10.3919 52.9225 10.4147 52.8965 10.4277C52.877 10.4342 52.8672 10.4635 52.8672 10.5156C52.8672 10.7565 52.8509 10.9909 52.8184 11.2188C52.7858 11.4401 52.7435 11.6615 52.6914 11.8828C52.6458 12.0977 52.5938 12.3158 52.5352 12.5371C52.4766 12.7585 52.4245 12.9831 52.3789 13.2109C52.3073 13.2891 52.252 13.377 52.2129 13.4746C52.1803 13.5723 52.1185 13.6504 52.0273 13.709C51.9427 13.9238 51.8353 14.1191 51.7051 14.2949C51.5814 14.4707 51.4414 14.6367 51.2852 14.793C51.1354 14.9492 50.9792 15.099 50.8164 15.2422C50.6536 15.3919 50.4941 15.5449 50.3379 15.7012C50.2728 15.7012 50.2077 15.7012 50.1426 15.7012C50.084 15.7077 50.0221 15.7109 49.957 15.7109C49.8138 15.7109 49.6706 15.7044 49.5273 15.6914C49.3841 15.6784 49.2474 15.6556 49.1172 15.623C49.0911 15.5319 49.0391 15.4701 48.9609 15.4375C48.8893 15.4115 48.8242 15.3691 48.7656 15.3105C48.7005 15.252 48.6517 15.1868 48.6191 15.1152C48.5866 15.0436 48.5182 14.9948 48.4141 14.9688C48.3815 14.8711 48.3294 14.7572 48.2578 14.627C48.1927 14.4967 48.1276 14.3633 48.0625 14.2266C47.9974 14.0898 47.9388 13.9596 47.8867 13.8359C47.8411 13.7057 47.8184 13.5951 47.8184 13.5039C47.8184 13.4714 47.8216 13.4421 47.8281 13.416C47.8411 13.3835 47.8509 13.3509 47.8574 13.3184C47.8184 13.2728 47.7923 13.2142 47.7793 13.1426C47.7663 13.071 47.7565 12.9993 47.75 12.9277C47.75 12.8496 47.7435 12.778 47.7305 12.7129C47.7174 12.6413 47.6882 12.5859 47.6426 12.5469C47.5645 12.599 47.5026 12.6641 47.457 12.7422C47.4115 12.8203 47.3691 12.9049 47.3301 12.9961C47.2975 13.0872 47.265 13.1784 47.2324 13.2695C47.1999 13.3607 47.1608 13.4453 47.1152 13.5234C47.0241 13.5951 46.9427 13.6764 46.8711 13.7676C46.806 13.8587 46.7376 13.9499 46.666 14.041C46.6009 14.1387 46.5293 14.2266 46.4512 14.3047C46.373 14.3893 46.2819 14.4577 46.1777 14.5098C46.1517 14.627 46.1029 14.7246 46.0312 14.8027C45.9661 14.8874 45.8945 14.9622 45.8164 15.0273C45.7383 15.099 45.6634 15.1706 45.5918 15.2422C45.5202 15.3203 45.4681 15.4147 45.4355 15.5254C45.3249 15.5775 45.2012 15.6523 45.0645 15.75C44.9277 15.8542 44.7878 15.9583 44.6445 16.0625C44.5078 16.1667 44.3678 16.2546 44.2246 16.3262C44.0879 16.4043 43.9674 16.4434 43.8633 16.4434C43.7786 16.4434 43.6973 16.4336 43.6191 16.4141C43.5475 16.401 43.4727 16.3848 43.3945 16.3652C43.3164 16.3457 43.2383 16.3262 43.1602 16.3066C43.082 16.2936 43.0007 16.2904 42.916 16.2969C42.7923 16.1667 42.6979 16.0169 42.6328 15.8477C42.5677 15.6849 42.4863 15.5319 42.3887 15.3887C42.3561 15.1934 42.3236 14.9948 42.291 14.793C42.2585 14.5977 42.2422 14.4023 42.2422 14.207C42.2422 14.0964 42.2552 13.9922 42.2812 13.8945C42.3073 13.8034 42.3203 13.709 42.3203 13.6113C42.3203 13.5788 42.3138 13.5495 42.3008 13.5234C42.2943 13.4909 42.2878 13.4583 42.2812 13.4258C42.3268 13.3346 42.3626 13.2402 42.3887 13.1426C42.4147 13.0384 42.4342 12.9342 42.4473 12.8301C42.4668 12.7259 42.4863 12.625 42.5059 12.5273C42.5254 12.4232 42.5547 12.3255 42.5938 12.2344C42.6068 12.1562 42.584 12.0977 42.5254 12.0586C42.571 12.013 42.6003 11.9642 42.6133 11.9121C42.6263 11.86 42.6328 11.8079 42.6328 11.7559C42.6393 11.7038 42.6426 11.6484 42.6426 11.5898C42.6426 11.5312 42.6491 11.4759 42.6621 11.4238C42.6686 11.3978 42.6849 11.3587 42.7109 11.3066L42.7988 11.1406C42.8314 11.082 42.8574 11.0299 42.877 10.9844C42.903 10.9323 42.916 10.8932 42.916 10.8672C42.916 10.8216 42.903 10.7728 42.877 10.7207C42.903 10.5905 42.9453 10.4635 43.0039 10.3398C43.069 10.2161 43.1178 10.0892 43.1504 9.95898C43.1829 9.82878 43.2025 9.71484 43.209 9.61719C43.2155 9.51302 43.2448 9.39258 43.2969 9.25586C43.3034 9.24284 43.3066 9.22656 43.3066 9.20703C43.3066 9.18099 43.2969 9.16471 43.2773 9.1582C43.2578 9.15169 43.2415 9.13867 43.2285 9.11914C43.3066 8.9694 43.3652 8.8099 43.4043 8.64062C43.4499 8.46484 43.4857 8.28581 43.5117 8.10352C43.5443 7.92122 43.5736 7.74219 43.5996 7.56641C43.6257 7.38411 43.6647 7.21159 43.7168 7.04883C43.6973 6.91862 43.681 6.78516 43.668 6.64844C43.6549 6.50521 43.6484 6.36849 43.6484 6.23828C43.6484 6.08854 43.6615 5.93555 43.6875 5.7793C43.7201 5.62305 43.7884 5.48633 43.8926 5.36914C43.9447 5.36914 44 5.36589 44.0586 5.35938C44.1237 5.35286 44.1823 5.34961 44.2344 5.34961C44.3125 5.34961 44.3971 5.36914 44.4883 5.4082C44.5339 5.61654 44.5924 5.82161 44.6641 6.02344C44.7357 6.22526 44.7715 6.4401 44.7715 6.66797C44.7715 6.77865 44.7585 6.88932 44.7324 7L44.6641 7.32227C44.6445 7.42643 44.6283 7.53385 44.6152 7.64453C44.6022 7.7487 44.6055 7.85286 44.625 7.95703C44.5534 8.05469 44.5111 8.16862 44.498 8.29883C44.4915 8.42253 44.4883 8.53971 44.4883 8.65039C44.4232 8.74154 44.3743 8.83268 44.3418 8.92383C44.3092 9.01497 44.2832 9.10938 44.2637 9.20703C44.2507 9.29818 44.2376 9.39258 44.2246 9.49023C44.2116 9.58789 44.1953 9.68555 44.1758 9.7832C44.1628 9.81576 44.14 9.85482 44.1074 9.90039C44.0814 9.94596 44.0684 9.97852 44.0684 9.99805C44.0684 10.0436 44.0814 10.0892 44.1074 10.1348C44.0944 10.1543 44.0814 10.1706 44.0684 10.1836C44.0553 10.1901 44.0456 10.2064 44.0391 10.2324C44.0195 10.304 44.0033 10.3822 43.9902 10.4668C43.9837 10.5449 43.9707 10.6198 43.9512 10.6914C43.9186 10.8542 43.873 11.0137 43.8145 11.1699C43.7624 11.3262 43.707 11.4824 43.6484 11.6387C43.6484 11.7689 43.6419 11.873 43.6289 11.9512C43.6224 12.0293 43.6094 12.1009 43.5898 12.166C43.5768 12.2246 43.5573 12.2897 43.5312 12.3613C43.5117 12.4264 43.4922 12.5111 43.4727 12.6152C43.4531 12.7129 43.4336 12.8333 43.4141 12.9766C43.401 13.1198 43.3848 13.2695 43.3652 13.4258C43.3522 13.5755 43.3424 13.7253 43.3359 13.875C43.3294 14.0182 43.3262 14.1419 43.3262 14.2461C43.3262 14.4349 43.3424 14.6172 43.375 14.793C43.4141 14.9753 43.4792 15.1478 43.5703 15.3105H43.7363C43.7754 15.3105 43.8177 15.3105 43.8633 15.3105C43.9089 15.3171 43.9512 15.3301 43.9902 15.3496C44.0358 15.3366 44.0586 15.3171 44.0586 15.291V15.2129C44.0586 15.1934 44.0749 15.1673 44.1074 15.1348L44.1758 15.1445C44.2409 15.1445 44.2995 15.1348 44.3516 15.1152C44.4102 15.0957 44.4688 15.0697 44.5273 15.0371C44.651 14.8678 44.7943 14.7246 44.957 14.6074C45.1263 14.4902 45.276 14.3535 45.4062 14.1973C45.4388 14.1452 45.4486 14.0833 45.4355 14.0117C45.5137 13.9987 45.5723 13.9694 45.6113 13.9238C45.6569 13.8783 45.6992 13.8294 45.7383 13.7773C45.7773 13.7253 45.8164 13.6764 45.8555 13.6309C45.901 13.5788 45.9596 13.543 46.0312 13.5234C46.0638 13.4648 46.0931 13.403 46.1191 13.3379C46.1452 13.2663 46.1712 13.1979 46.1973 13.1328C46.2298 13.0677 46.2656 13.0091 46.3047 12.957C46.3503 12.8984 46.4089 12.8529 46.4805 12.8203C46.5911 12.5729 46.6855 12.319 46.7637 12.0586C46.8418 11.7917 46.959 11.5475 47.1152 11.3262C47.1152 11.2415 47.1185 11.1634 47.125 11.0918C47.1315 11.0202 47.1283 10.9453 47.1152 10.8672C47.278 10.6458 47.3822 10.4147 47.4277 10.1738C47.4733 9.93294 47.4961 9.67904 47.4961 9.41211C47.4961 9.19076 47.5677 9.03776 47.7109 8.95312C47.8607 8.86849 48.0365 8.82617 48.2383 8.82617H48.3359C48.375 8.82617 48.4108 8.82943 48.4434 8.83594C48.4564 8.88151 48.4792 8.91732 48.5117 8.94336C48.5508 8.96289 48.5898 8.98568 48.6289 9.01172V9.07031C48.6289 9.16146 48.6159 9.24609 48.5898 9.32422C48.5703 9.39583 48.5605 9.47396 48.5605 9.55859C48.5605 9.59766 48.5671 9.64974 48.5801 9.71484C48.6452 9.90365 48.694 10.0762 48.7266 10.2324C48.7656 10.3887 48.7852 10.571 48.7852 10.7793C48.7852 10.9551 48.7754 11.1341 48.7559 11.3164C48.7428 11.4922 48.7233 11.668 48.6973 11.8438C48.7363 11.9154 48.7559 11.9902 48.7559 12.0684C48.7559 12.1204 48.7493 12.1758 48.7363 12.2344C48.7298 12.2865 48.7266 12.3385 48.7266 12.3906C48.7266 12.5013 48.7428 12.612 48.7754 12.7227C48.8145 12.8268 48.8535 12.931 48.8926 13.0352C48.9382 13.1393 48.9772 13.2435 49.0098 13.3477C49.0423 13.4518 49.0553 13.556 49.0488 13.6602C49.1595 13.7969 49.2572 13.9368 49.3418 14.0801C49.4329 14.2298 49.5436 14.36 49.6738 14.4707C49.7259 14.4837 49.7682 14.4902 49.8008 14.4902C49.8398 14.4902 49.8724 14.4837 49.8984 14.4707C49.9245 14.4642 49.9473 14.4544 49.9668 14.4414C49.9928 14.4349 50.0189 14.4284 50.0449 14.4219C50.071 14.4219 50.11 14.4251 50.1621 14.4316C50.2793 14.347 50.3867 14.2493 50.4844 14.1387C50.582 14.0345 50.6732 13.9271 50.7578 13.8164C50.849 13.7057 50.9401 13.5918 51.0312 13.4746C51.1224 13.3574 51.2168 13.2467 51.3145 13.1426C51.5033 12.6738 51.6562 12.2051 51.7734 11.7363C51.8906 11.2676 51.9622 10.7793 51.9883 10.2715C51.9883 10.1999 52.0046 10.1641 52.0371 10.1641C52.0697 10.1641 52.099 10.1413 52.125 10.0957V9.82227C52.125 9.61393 52.1348 9.4056 52.1543 9.19727C52.1803 8.98893 52.2292 8.78385 52.3008 8.58203C52.2812 8.50391 52.2715 8.42578 52.2715 8.34766C52.2715 8.17839 52.2845 8.01562 52.3105 7.85938C52.3431 7.69661 52.3594 7.53385 52.3594 7.37109C52.3594 7.28646 52.3496 7.20182 52.3301 7.11719C52.3171 7.02604 52.2845 6.94466 52.2324 6.87305L52.2227 6.81445C52.2227 6.77539 52.2357 6.74284 52.2617 6.7168C52.2943 6.69076 52.3171 6.66146 52.3301 6.62891C52.2975 6.54427 52.2845 6.45638 52.291 6.36523C52.304 6.27409 52.3105 6.18294 52.3105 6.0918C52.3105 6.03971 52.304 5.98438 52.291 5.92578C52.278 5.86719 52.2454 5.82161 52.1934 5.78906C52.252 5.72396 52.2943 5.63932 52.3203 5.53516C52.3464 5.43099 52.3626 5.32031 52.3691 5.20312C52.3822 5.08594 52.3887 4.97201 52.3887 4.86133C52.3887 4.74414 52.3952 4.64648 52.4082 4.56836C52.4668 4.50326 52.5319 4.44792 52.6035 4.40234C52.6816 4.35026 52.7663 4.32422 52.8574 4.32422C52.9746 4.32422 53.0592 4.36654 53.1113 4.45117C53.1634 4.5293 53.2025 4.62695 53.2285 4.74414C53.2546 4.85482 53.2741 4.96875 53.2871 5.08594C53.3066 5.20312 53.3392 5.29753 53.3848 5.36914ZM60.0938 7.66406V7.70312C60.0482 7.71615 60.0254 7.7487 60.0254 7.80078C59.9538 7.83333 59.8789 7.85938 59.8008 7.87891C59.7227 7.89193 59.6478 7.91471 59.5762 7.94727C59.5046 7.94076 59.4297 7.9375 59.3516 7.9375C59.2799 7.93099 59.2083 7.92773 59.1367 7.92773C58.9414 7.92773 58.7461 7.93424 58.5508 7.94727C58.3555 7.96029 58.1602 7.96029 57.9648 7.94727C57.8737 7.99935 57.7728 8.04167 57.6621 8.07422C57.5579 8.10026 57.457 8.11328 57.3594 8.11328C57.2812 8.11328 57.2129 8.10352 57.1543 8.08398C56.998 8.16211 56.8255 8.22721 56.6367 8.2793C56.4544 8.33138 56.2689 8.38346 56.0801 8.43555C55.8913 8.48112 55.709 8.53646 55.5332 8.60156C55.3639 8.66016 55.2142 8.74479 55.084 8.85547C55.071 8.94661 55.0612 9.03776 55.0547 9.12891C55.0482 9.21354 55.0449 9.29818 55.0449 9.38281C55.0449 9.47396 55.0482 9.55859 55.0547 9.63672C55.0677 9.71484 55.0905 9.79297 55.123 9.87109C55.1556 9.88411 55.1914 9.89388 55.2305 9.90039C55.276 9.9069 55.3151 9.91016 55.3477 9.91016C55.3802 9.91016 55.4128 9.9069 55.4453 9.90039C55.4779 9.88737 55.5007 9.86458 55.5137 9.83203C55.6113 9.81901 55.709 9.81576 55.8066 9.82227C55.9043 9.82227 56.002 9.82227 56.0996 9.82227C56.1973 9.82227 56.2917 9.81901 56.3828 9.8125C56.4805 9.80599 56.5749 9.78971 56.666 9.76367C56.7702 9.73763 56.8711 9.72135 56.9688 9.71484C57.0729 9.70833 57.1738 9.70182 57.2715 9.69531C57.3691 9.6888 57.4701 9.67904 57.5742 9.66602C57.6784 9.64648 57.7858 9.61068 57.8965 9.55859C57.9811 9.59115 58.0658 9.60742 58.1504 9.60742C58.2415 9.60742 58.3294 9.61393 58.4141 9.62695C58.4596 9.65951 58.4954 9.69531 58.5215 9.73438C58.554 9.77344 58.5703 9.81901 58.5703 9.87109C58.5703 9.96224 58.5378 10.0534 58.4727 10.1445C58.4076 10.2357 58.3555 10.3203 58.3164 10.3984H58.209C58.0527 10.3984 57.8997 10.4212 57.75 10.4668C57.6068 10.5059 57.4603 10.5547 57.3105 10.6133C57.1673 10.6654 57.0208 10.7142 56.8711 10.7598C56.7279 10.7988 56.5781 10.8184 56.4219 10.8184C56.3958 10.8184 56.3796 10.8346 56.373 10.8672C56.373 10.8932 56.3665 10.9128 56.3535 10.9258C56.321 10.9193 56.2721 10.916 56.207 10.916C56.0573 10.916 55.9141 10.9323 55.7773 10.9648C55.6406 10.9974 55.5007 11.0137 55.3574 11.0137C55.3184 11.0137 55.2793 11.0137 55.2402 11.0137C55.2012 11.0072 55.1621 11.0007 55.123 10.9941C55.0905 11.0462 55.0482 11.082 54.9961 11.1016C54.944 11.1146 54.8952 11.1406 54.8496 11.1797C54.8301 11.2383 54.8171 11.3099 54.8105 11.3945C54.8105 11.4792 54.8073 11.5671 54.8008 11.6582C54.8008 11.7428 54.7943 11.8242 54.7812 11.9023C54.7682 11.9805 54.7422 12.0423 54.7031 12.0879C54.7096 12.1204 54.7357 12.1335 54.7812 12.127C54.8268 12.1139 54.8496 12.1335 54.8496 12.1855C54.8496 12.2441 54.8431 12.306 54.8301 12.3711C54.8171 12.4362 54.8105 12.5013 54.8105 12.5664C54.8105 12.6901 54.8236 12.8268 54.8496 12.9766C54.8822 13.1198 54.9277 13.2533 54.9863 13.377C55.0514 13.5007 55.1361 13.6048 55.2402 13.6895C55.3444 13.7676 55.4746 13.8066 55.6309 13.8066C55.735 13.8066 55.8327 13.7871 55.9238 13.748C56.015 13.709 56.0898 13.6439 56.1484 13.5527L56.1973 13.543C56.2233 13.543 56.2461 13.5462 56.2656 13.5527C56.2917 13.5592 56.3177 13.5625 56.3438 13.5625C56.3828 13.5625 56.4316 13.5397 56.4902 13.4941C56.5553 13.4421 56.6237 13.3835 56.6953 13.3184C56.7734 13.2533 56.8516 13.1914 56.9297 13.1328C57.0078 13.0677 57.0827 13.0221 57.1543 12.9961C57.1999 12.9049 57.2422 12.8138 57.2812 12.7227C57.3268 12.6315 57.3919 12.5599 57.4766 12.5078V12.2246C57.5417 12.153 57.61 12.0879 57.6816 12.0293C57.7598 11.9707 57.8184 11.8958 57.8574 11.8047C57.89 11.8177 57.9193 11.8275 57.9453 11.834C57.9779 11.8405 58.0104 11.8438 58.043 11.8438C58.0755 11.8438 58.1081 11.8405 58.1406 11.834C58.1797 11.8275 58.2155 11.8177 58.248 11.8047C58.3001 11.8763 58.3392 11.9577 58.3652 12.0488C58.3978 12.1335 58.4368 12.2148 58.4824 12.293C58.4238 12.4102 58.3555 12.5501 58.2773 12.7129C58.1992 12.8757 58.1146 13.0384 58.0234 13.2012C57.9323 13.3639 57.8346 13.5202 57.7305 13.6699C57.6328 13.8132 57.5352 13.9238 57.4375 14.002C57.418 14.0215 57.3757 14.0443 57.3105 14.0703C57.2389 14.1224 57.1738 14.1712 57.1152 14.2168C57.0566 14.2689 57.0013 14.3275 56.9492 14.3926C56.7604 14.4512 56.5781 14.5293 56.4023 14.627C56.2331 14.7246 56.0638 14.819 55.8945 14.9102C55.8164 14.8906 55.7318 14.8809 55.6406 14.8809C55.5625 14.8809 55.4844 14.8841 55.4062 14.8906C55.3281 14.9036 55.2435 14.9102 55.1523 14.9102C55.1263 14.8776 55.0872 14.8548 55.0352 14.8418C54.9896 14.8353 54.9733 14.8027 54.9863 14.7441C54.765 14.7311 54.5859 14.6693 54.4492 14.5586C54.3125 14.4544 54.1953 14.3242 54.0977 14.168C54.0065 14.0117 53.9316 13.8424 53.873 13.6602C53.8145 13.4779 53.7526 13.3021 53.6875 13.1328V13.1035C53.6875 13.071 53.7005 13.0514 53.7266 13.0449C53.7526 13.0384 53.7656 13.0189 53.7656 12.9863C53.7656 12.9733 53.7624 12.9635 53.7559 12.957C53.7363 12.8854 53.7201 12.8236 53.707 12.7715C53.694 12.7194 53.6875 12.6576 53.6875 12.5859C53.6875 12.4818 53.694 12.3809 53.707 12.2832C53.7201 12.179 53.7266 12.0749 53.7266 11.9707C53.7266 11.8665 53.7135 11.7754 53.6875 11.6973C53.7135 11.6647 53.7363 11.6224 53.7559 11.5703C53.7689 11.5117 53.7786 11.4531 53.7852 11.3945C53.7917 11.3359 53.7949 11.2773 53.7949 11.2188C53.8014 11.1602 53.8112 11.1081 53.8242 11.0625C53.7982 10.9909 53.7754 10.929 53.7559 10.877C53.7363 10.8184 53.7266 10.75 53.7266 10.6719V10.6035C53.7917 10.4928 53.847 10.3789 53.8926 10.2617C53.9382 10.1445 53.987 10.0241 54.0391 9.90039V9.87109C54.0391 9.68229 54.0326 9.49349 54.0195 9.30469C54.0065 9.11589 54 8.92708 54 8.73828V8.55273C54 8.48763 54.0033 8.42578 54.0098 8.36719C54.0618 8.34115 54.1009 8.30534 54.127 8.25977C54.153 8.21419 54.1921 8.17839 54.2441 8.15234H54.5664L54.625 8.05469C54.6445 8.02214 54.6576 7.98633 54.6641 7.94727C54.7357 7.92773 54.804 7.90169 54.8691 7.86914C54.9408 7.83008 55.0059 7.79102 55.0645 7.75195C55.1556 7.69987 55.237 7.6543 55.3086 7.61523C55.3867 7.56966 55.4616 7.53385 55.5332 7.50781C55.6113 7.47526 55.6927 7.44922 55.7773 7.42969C55.862 7.41016 55.9596 7.39388 56.0703 7.38086C56.1224 7.38086 56.1549 7.37109 56.168 7.35156C56.1875 7.33203 56.2135 7.30924 56.2461 7.2832C56.3242 7.29622 56.4023 7.30924 56.4805 7.32227C56.5586 7.32878 56.6367 7.33203 56.7148 7.33203C56.8711 7.33203 57.0176 7.30273 57.1543 7.24414C57.3496 7.24414 57.5417 7.24089 57.7305 7.23438C57.9258 7.22786 58.1211 7.22461 58.3164 7.22461C58.4857 7.22461 58.6549 7.23112 58.8242 7.24414C58.9935 7.25716 59.1595 7.27995 59.3223 7.3125C59.3809 7.29297 59.446 7.2832 59.5176 7.2832C59.5957 7.2832 59.6738 7.29297 59.752 7.3125C59.8366 7.32552 59.918 7.32552 59.9961 7.3125C60.0026 7.38411 60.0189 7.44596 60.0449 7.49805C60.0775 7.54362 60.0938 7.59896 60.0938 7.66406ZM66.8906 13.1621C66.8711 13.2533 66.8288 13.3281 66.7637 13.3867C66.7051 13.4388 66.6335 13.4811 66.5488 13.5137C66.4642 13.5462 66.3763 13.569 66.2852 13.582C66.2005 13.5885 66.1224 13.5918 66.0508 13.5918C66.0182 13.5918 65.9857 13.5918 65.9531 13.5918C65.9271 13.5853 65.8978 13.582 65.8652 13.582C65.8327 13.582 65.8164 13.5983 65.8164 13.6309C65.8164 13.6634 65.8001 13.6862 65.7676 13.6992C65.735 13.6862 65.7025 13.6764 65.6699 13.6699C65.6374 13.6634 65.6048 13.6602 65.5723 13.6602C65.5267 13.6602 65.4811 13.6634 65.4355 13.6699C65.3965 13.6764 65.3574 13.6797 65.3184 13.6797C65.2663 13.6797 65.2272 13.6732 65.2012 13.6602C65.1816 13.6471 65.1621 13.6341 65.1426 13.6211C65.1296 13.6016 65.1133 13.582 65.0938 13.5625C65.0807 13.543 65.0579 13.5267 65.0254 13.5137C64.9798 13.4941 64.9408 13.4909 64.9082 13.5039C64.8822 13.5169 64.8398 13.4974 64.7812 13.4453C64.7031 13.3802 64.6348 13.3021 64.5762 13.2109C64.5241 13.1133 64.472 13.0124 64.4199 12.9082C64.3678 12.804 64.3125 12.6999 64.2539 12.5957C64.1953 12.4915 64.127 12.4004 64.0488 12.3223H63.9707C63.8535 12.3223 63.7721 12.3711 63.7266 12.4688C63.694 12.4492 63.6615 12.4264 63.6289 12.4004C63.5964 12.3678 63.5605 12.3418 63.5215 12.3223C63.3717 12.3678 63.2155 12.4069 63.0527 12.4395C62.89 12.472 62.7272 12.4883 62.5645 12.4883H62.4277C62.3887 12.4883 62.3464 12.4818 62.3008 12.4688C62.2357 12.4948 62.1771 12.5273 62.125 12.5664C62.0729 12.599 62.0143 12.6152 61.9492 12.6152C61.9102 12.6152 61.8646 12.6022 61.8125 12.5762C61.7734 12.5762 61.7539 12.5924 61.7539 12.625C61.7604 12.6576 61.7409 12.6738 61.6953 12.6738H61.6074C61.5163 12.6738 61.4251 12.6771 61.334 12.6836C61.2493 12.6901 61.1615 12.6934 61.0703 12.6934C60.9466 12.6934 60.8197 12.6771 60.6895 12.6445C60.6569 12.6641 60.6211 12.6738 60.582 12.6738C60.556 12.6868 60.5365 12.7096 60.5234 12.7422C60.5104 12.7682 60.4974 12.7943 60.4844 12.8203C60.4714 12.8398 60.4518 12.8594 60.4258 12.8789C60.4062 12.8919 60.377 12.8952 60.3379 12.8887C60.3249 12.9668 60.2923 13.0286 60.2402 13.0742C60.1882 13.1198 60.1621 13.1882 60.1621 13.2793C60.0905 13.3184 60.0319 13.3672 59.9863 13.4258C59.9408 13.4844 59.8952 13.5462 59.8496 13.6113C59.804 13.6764 59.7552 13.7383 59.7031 13.7969C59.6576 13.8555 59.599 13.901 59.5273 13.9336C59.4948 13.9727 59.485 14.0345 59.498 14.1191C59.4264 14.1777 59.3385 14.2298 59.2344 14.2754C59.1302 14.321 59.0326 14.3438 58.9414 14.3438C58.7526 14.3438 58.6224 14.2428 58.5508 14.041C58.5508 13.9759 58.5573 13.9076 58.5703 13.8359C58.5768 13.7578 58.5898 13.6862 58.6094 13.6211C58.6289 13.5495 58.6582 13.4876 58.6973 13.4355C58.7363 13.377 58.7917 13.3346 58.8633 13.3086C58.8633 13.25 58.8438 13.2109 58.8047 13.1914C58.7656 13.1654 58.7493 13.123 58.7559 13.0645C58.9316 12.9798 59.0846 12.8691 59.2148 12.7324C59.3451 12.5957 59.4622 12.4525 59.5664 12.3027C59.6771 12.1465 59.7878 11.9902 59.8984 11.834C60.0091 11.6777 60.1328 11.5378 60.2695 11.4141V11.209C60.4648 11.0007 60.5918 10.7663 60.6504 10.5059C60.722 10.4928 60.7676 10.4603 60.7871 10.4082C60.8132 10.3561 60.8262 10.2943 60.8262 10.2227C60.8587 10.2227 60.8783 10.2096 60.8848 10.1836C60.8978 10.151 60.9271 10.1413 60.9727 10.1543C61.0312 9.99805 61.0964 9.85482 61.168 9.72461C61.2396 9.5944 61.3112 9.46419 61.3828 9.33398C61.4544 9.19727 61.5163 9.05729 61.5684 8.91406C61.627 8.77083 61.6693 8.61133 61.6953 8.43555C61.7865 8.42904 61.8353 8.38672 61.8418 8.30859C61.8548 8.22396 61.8678 8.14909 61.8809 8.08398C61.9785 7.99284 62.0501 7.88542 62.0957 7.76172C62.1478 7.63802 62.1934 7.51107 62.2324 7.38086C62.2715 7.24414 62.3138 7.11068 62.3594 6.98047C62.4115 6.84375 62.4831 6.72331 62.5742 6.61914V6.58984C62.5742 6.55729 62.5612 6.53776 62.5352 6.53125C62.5091 6.51823 62.4961 6.49544 62.4961 6.46289C62.5026 6.45638 62.5059 6.44987 62.5059 6.44336C62.584 6.41081 62.6426 6.35872 62.6816 6.28711C62.7207 6.20898 62.7793 6.15365 62.8574 6.12109C62.9941 6.23177 63.1146 6.30013 63.2188 6.32617C63.3229 6.3457 63.4596 6.36198 63.6289 6.375C63.7135 6.46615 63.7591 6.57682 63.7656 6.70703C63.7786 6.83073 63.8014 6.95443 63.834 7.07812C63.8861 7.28646 63.9414 7.49154 64 7.69336C64.0651 7.88867 64.1139 8.09049 64.1465 8.29883C64.166 8.42253 64.2018 8.53971 64.2539 8.65039C64.306 8.76107 64.3418 8.875 64.3613 8.99219C64.3743 9.08333 64.3743 9.1875 64.3613 9.30469C64.3483 9.41536 64.3613 9.51302 64.4004 9.59766L64.4688 9.75391C64.5013 9.82552 64.5273 9.90039 64.5469 9.97852C64.5729 10.0566 64.5957 10.1348 64.6152 10.2129C64.6673 10.4082 64.7129 10.6198 64.752 10.8477C64.7975 11.069 64.8659 11.2708 64.957 11.4531C64.9896 11.5182 65.0384 11.5638 65.1035 11.5898C65.1751 11.6159 65.2533 11.6354 65.3379 11.6484C65.4225 11.6549 65.5039 11.6582 65.582 11.6582C65.6667 11.6517 65.7383 11.6484 65.7969 11.6484H65.8945C65.9336 11.6484 65.9727 11.6549 66.0117 11.668C66.0378 11.7201 66.0508 11.7656 66.0508 11.8047C66.0508 11.8828 66.0247 11.9447 65.9727 11.9902C65.9206 12.0358 65.8945 12.0879 65.8945 12.1465C65.8945 12.179 65.9076 12.2148 65.9336 12.2539C65.9076 12.2474 65.8685 12.2441 65.8164 12.2441C65.6667 12.2441 65.5202 12.2702 65.377 12.3223C65.429 12.4329 65.4974 12.5273 65.582 12.6055C65.6732 12.6771 65.7676 12.7454 65.8652 12.8105C65.9303 12.7585 65.9987 12.7324 66.0703 12.7324C66.1484 12.7324 66.2201 12.752 66.2852 12.791C66.3568 12.8236 66.4316 12.8398 66.5098 12.8398C66.5684 12.8398 66.6107 12.8301 66.6367 12.8105C66.6888 12.8691 66.7311 12.931 66.7637 12.9961C66.7962 13.0547 66.8385 13.11 66.8906 13.1621ZM63.834 11.5996C63.821 11.4889 63.7982 11.4108 63.7656 11.3652C63.7396 11.3132 63.7168 11.2513 63.6973 11.1797C63.6712 11.0885 63.6517 10.9909 63.6387 10.8867C63.6322 10.7826 63.6191 10.6816 63.5996 10.584C63.554 10.3626 63.502 10.1413 63.4434 9.91992C63.3913 9.69857 63.3229 9.48372 63.2383 9.27539C63.2643 9.23633 63.2773 9.20052 63.2773 9.16797V9.13867C63.2188 9.07357 63.1764 8.99544 63.1504 8.9043C63.1243 8.80664 63.0983 8.71224 63.0723 8.62109C63.0527 8.52344 63.0234 8.43555 62.9844 8.35742C62.9518 8.27279 62.8965 8.20443 62.8184 8.15234C62.7988 8.19141 62.7891 8.23698 62.7891 8.28906C62.7891 8.33464 62.7923 8.37695 62.7988 8.41602C62.8118 8.45508 62.8184 8.4974 62.8184 8.54297C62.7533 8.57552 62.7044 8.6276 62.6719 8.69922C62.6458 8.76432 62.6003 8.81641 62.5352 8.85547C62.4831 9.0638 62.4082 9.26237 62.3105 9.45117C62.2129 9.63346 62.1087 9.81576 61.998 9.99805C61.8939 10.1803 61.793 10.3659 61.6953 10.5547C61.5977 10.737 61.5195 10.929 61.4609 11.1309C61.3763 11.1895 61.3177 11.2643 61.2852 11.3555C61.2591 11.4466 61.2461 11.5378 61.2461 11.6289C61.3047 11.6615 61.3698 11.681 61.4414 11.6875C61.5195 11.6875 61.5944 11.6875 61.666 11.6875C61.7376 11.6875 61.806 11.694 61.8711 11.707C61.9362 11.7201 61.9948 11.7526 62.0469 11.8047C62.1315 11.7786 62.2227 11.7624 62.3203 11.7559C62.4245 11.7428 62.5091 11.7135 62.5742 11.668C62.7044 11.7135 62.8444 11.7363 62.9941 11.7363C63.0723 11.7363 63.1471 11.7298 63.2188 11.7168C63.2969 11.7038 63.3717 11.6875 63.4434 11.668C63.502 11.681 63.5475 11.7038 63.5801 11.7363C63.6126 11.7624 63.6615 11.7721 63.7266 11.7656C63.7591 11.7396 63.7786 11.7135 63.7852 11.6875C63.7917 11.6549 63.8079 11.6257 63.834 11.5996ZM74.7227 7.5957C74.6966 7.68034 74.6543 7.75846 74.5957 7.83008L74.4297 8.03516C74.3776 8.10026 74.332 8.17188 74.293 8.25C74.2604 8.32161 74.2507 8.40625 74.2637 8.50391C74.2507 8.50391 74.2344 8.50391 74.2148 8.50391C74.1953 8.4974 74.179 8.49414 74.166 8.49414C74.0618 8.49414 73.9805 8.52018 73.9219 8.57227C73.8698 8.61784 73.7982 8.6569 73.707 8.68945C73.694 8.65039 73.6777 8.61458 73.6582 8.58203C73.6387 8.54297 73.6094 8.51693 73.5703 8.50391C73.4141 8.53646 73.2578 8.5625 73.1016 8.58203C72.9453 8.59505 72.7891 8.61458 72.6328 8.64062C72.5612 8.65365 72.4896 8.67318 72.418 8.69922C72.3464 8.71875 72.2715 8.73828 72.1934 8.75781C72.1543 8.77083 72.112 8.77734 72.0664 8.77734C72.0208 8.77083 71.9753 8.77083 71.9297 8.77734C71.7734 8.78385 71.6042 8.79688 71.4219 8.81641C71.2396 8.82943 71.0768 8.87826 70.9336 8.96289C70.8685 8.94987 70.8001 8.9401 70.7285 8.93359C70.6569 8.92708 70.5853 8.92383 70.5137 8.92383C70.3574 8.92383 70.1849 8.9401 69.9961 8.97266C69.8138 8.9987 69.651 9.05404 69.5078 9.13867C69.4753 9.12565 69.4395 9.11589 69.4004 9.10938C69.3678 9.10286 69.3288 9.09961 69.2832 9.09961C69.2702 9.09961 69.2604 9.10286 69.2539 9.10938C69.2474 9.10938 69.2376 9.10938 69.2246 9.10938C69.2181 9.16797 69.2246 9.22656 69.2441 9.28516C69.2702 9.33724 69.3125 9.37956 69.3711 9.41211C69.3451 9.48372 69.332 9.56185 69.332 9.64648C69.332 9.75716 69.3385 9.86784 69.3516 9.97852C69.3711 10.0892 69.3809 10.1999 69.3809 10.3105C69.3809 10.4342 69.3646 10.5319 69.332 10.6035C69.3971 10.7988 69.4297 11.0072 69.4297 11.2285C69.4297 11.3066 69.4232 11.3848 69.4102 11.4629C69.4036 11.5345 69.4004 11.6126 69.4004 11.6973C69.4004 11.7689 69.4264 11.8275 69.4785 11.873C69.5306 11.9121 69.5566 11.9674 69.5566 12.0391C69.5566 12.0651 69.5501 12.0911 69.5371 12.1172C69.6283 12.0977 69.7161 12.0716 69.8008 12.0391C69.8854 12 69.9733 11.9805 70.0645 11.9805C70.1165 11.9805 70.1654 11.9902 70.2109 12.0098C70.263 12.0293 70.3086 12.0553 70.3477 12.0879C70.3411 12.1204 70.3346 12.1562 70.3281 12.1953C70.3281 12.2344 70.3281 12.2734 70.3281 12.3125C70.3281 12.3841 70.3281 12.4525 70.3281 12.5176C70.3346 12.5762 70.3411 12.6413 70.3477 12.7129C70.2956 12.804 70.2337 12.8854 70.1621 12.957C70.097 13.0286 70.0514 13.1198 70.0254 13.2305C69.9277 13.2305 69.8398 13.2533 69.7617 13.2988C69.6901 13.3379 69.6217 13.3835 69.5566 13.4355C69.4915 13.4811 69.4264 13.5267 69.3613 13.5723C69.2962 13.6113 69.2246 13.6309 69.1465 13.6309C69.0488 13.6309 68.9805 13.6178 68.9414 13.5918C68.9023 13.5592 68.873 13.5267 68.8535 13.4941C68.834 13.4616 68.8145 13.4323 68.7949 13.4062C68.7819 13.3802 68.7493 13.3704 68.6973 13.377C68.6842 13.2923 68.6582 13.2142 68.6191 13.1426C68.5801 13.0645 68.5378 12.9896 68.4922 12.918C68.4531 12.8464 68.4108 12.7747 68.3652 12.7031C68.3262 12.625 68.2969 12.5469 68.2773 12.4688C68.2383 12.2995 68.222 12.1237 68.2285 11.9414C68.235 11.7591 68.2057 11.5833 68.1406 11.4141C68.1536 11.3229 68.1634 11.2318 68.1699 11.1406C68.1764 11.043 68.1797 10.9486 68.1797 10.8574C68.1797 10.6751 68.1732 10.4961 68.1602 10.3203C68.1536 10.138 68.1471 9.95247 68.1406 9.76367C68.0951 9.70508 68.0658 9.63997 68.0527 9.56836C68.0462 9.49023 68.0397 9.41536 68.0332 9.34375C68.0137 9.32422 67.9909 9.30469 67.9648 9.28516C67.9453 9.26562 67.9323 9.23958 67.9258 9.20703C67.8737 9.19401 67.8346 9.1875 67.8086 9.1875C67.7174 9.1875 67.6393 9.21029 67.5742 9.25586C67.5156 9.29492 67.4603 9.31445 67.4082 9.31445C67.3561 9.31445 67.3073 9.30794 67.2617 9.29492C67.2161 9.2819 67.1706 9.27539 67.125 9.27539C67.0859 9.27539 67.0632 9.28516 67.0566 9.30469C67.0566 9.31771 67.0436 9.33073 67.0176 9.34375C66.998 9.35677 66.9525 9.36979 66.8809 9.38281C66.8092 9.39583 66.7279 9.40885 66.6367 9.42188C66.5521 9.42839 66.4674 9.4349 66.3828 9.44141C66.3047 9.44792 66.2526 9.45117 66.2266 9.45117C66.1224 9.45117 66.0443 9.43164 65.9922 9.39258C65.9336 9.34701 65.8652 9.29818 65.7871 9.24609C65.8001 9.20703 65.8066 9.18099 65.8066 9.16797C65.8066 9.10286 65.7871 9.05078 65.748 9.01172C65.709 8.96615 65.6895 8.92708 65.6895 8.89453C65.6895 8.82292 65.7188 8.76758 65.7773 8.72852C65.8294 8.68945 65.8587 8.6276 65.8652 8.54297C66.015 8.47786 66.168 8.42904 66.3242 8.39648C66.4805 8.36393 66.64 8.33789 66.8027 8.31836C66.9655 8.29883 67.125 8.27604 67.2812 8.25C67.444 8.22396 67.6035 8.18164 67.7598 8.12305C67.8053 8.12956 67.8477 8.13607 67.8867 8.14258C67.9323 8.14258 67.9779 8.14258 68.0234 8.14258C68.2188 8.14258 68.4108 8.12305 68.5996 8.08398C68.7949 8.03841 68.9935 8.01562 69.1953 8.01562C69.2474 8.01562 69.2995 8.01888 69.3516 8.02539C69.4036 8.0319 69.4557 8.04167 69.5078 8.05469C69.7682 8.01562 70.0254 7.97331 70.2793 7.92773C70.5397 7.88216 70.8066 7.8431 71.0801 7.81055C71.2103 7.79753 71.3372 7.78776 71.4609 7.78125C71.5911 7.76823 71.7214 7.75195 71.8516 7.73242C71.8971 7.72591 71.9297 7.71615 71.9492 7.70312C71.9753 7.68359 71.9883 7.64779 71.9883 7.5957C72.0469 7.62174 72.112 7.63477 72.1836 7.63477C72.2943 7.63477 72.4017 7.61523 72.5059 7.57617C72.61 7.53711 72.7174 7.51758 72.8281 7.51758C72.8542 7.51758 72.877 7.52083 72.8965 7.52734C72.916 7.52734 72.9355 7.52734 72.9551 7.52734C73.0007 7.52734 73.0234 7.50781 73.0234 7.46875C73.0299 7.42318 73.0625 7.39388 73.1211 7.38086C73.1667 7.36784 73.2318 7.35807 73.3164 7.35156C73.401 7.34505 73.4889 7.33854 73.5801 7.33203C73.6777 7.31901 73.7656 7.30599 73.8438 7.29297C73.9284 7.27344 73.9902 7.2474 74.0293 7.21484L74.0977 7.10742C74.2148 7.11393 74.2995 7.16602 74.3516 7.26367C74.4102 7.35482 74.4427 7.45573 74.4492 7.56641C74.4753 7.59245 74.5111 7.60547 74.5566 7.60547C74.6087 7.59896 74.6543 7.5957 74.6934 7.5957H74.7227ZM79.4492 9.31445C79.4232 9.37956 79.3971 9.44141 79.3711 9.5C79.3451 9.55859 79.3255 9.6237 79.3125 9.69531C79.2669 9.72786 79.2148 9.75391 79.1562 9.77344C79.1042 9.78646 79.0488 9.80273 78.9902 9.82227C78.9316 9.83529 78.8763 9.85482 78.8242 9.88086C78.7786 9.90039 78.7428 9.93294 78.7168 9.97852C78.6973 10.0762 78.6875 10.1673 78.6875 10.252C78.6875 10.3626 78.707 10.457 78.7461 10.5352C78.7266 10.5938 78.7135 10.6556 78.707 10.7207C78.7005 10.7858 78.6973 10.8477 78.6973 10.9062C78.6973 11.1211 78.7233 11.3359 78.7754 11.5508C78.8275 11.7591 78.8568 11.9707 78.8633 12.1855C78.8633 12.2181 78.86 12.2539 78.8535 12.293C78.847 12.332 78.8438 12.3678 78.8438 12.4004C78.8438 12.5371 78.8958 12.6283 79 12.6738C78.9805 12.7064 78.9707 12.7357 78.9707 12.7617C78.9707 12.8138 78.9772 12.8594 78.9902 12.8984C79.0033 12.9375 79.0065 12.9798 79 13.0254C79.0326 13.0905 79.0651 13.1491 79.0977 13.2012C79.1302 13.2467 79.153 13.3053 79.166 13.377C79.1204 13.4681 79.0651 13.5527 79 13.6309C78.9349 13.7025 78.8893 13.7936 78.8633 13.9043C78.8372 13.8978 78.8079 13.8945 78.7754 13.8945C78.7298 13.8945 78.694 13.9043 78.668 13.9238C78.6419 13.9434 78.6191 13.9661 78.5996 13.9922C78.5866 14.0247 78.5703 14.054 78.5508 14.0801C78.5312 14.1126 78.5052 14.1354 78.4727 14.1484H78.4434C78.4108 14.1549 78.3815 14.1517 78.3555 14.1387C78.3359 14.1322 78.3164 14.1289 78.2969 14.1289C78.2839 14.1289 78.2578 14.1354 78.2188 14.1484C78.1667 14.0833 78.1309 14.0052 78.1113 13.9141C78.0918 13.8294 78.082 13.7448 78.082 13.6602C78.082 13.569 78.0951 13.4876 78.1211 13.416C78.0495 13.3574 78.0039 13.2695 77.9844 13.1523C77.9714 13.0352 77.9551 12.9375 77.9355 12.8594C77.8835 12.6185 77.8216 12.3841 77.75 12.1562C77.6849 11.9284 77.6458 11.694 77.6328 11.4531C77.6263 11.362 77.623 11.2741 77.623 11.1895V10.6816C77.623 10.597 77.6263 10.5156 77.6328 10.4375C77.6328 10.3789 77.6361 10.3236 77.6426 10.2715C77.6556 10.2129 77.6621 10.1543 77.6621 10.0957C77.6621 10.0176 77.6361 9.94271 77.584 9.87109C77.1217 9.89062 76.6823 9.97526 76.2656 10.125C75.8555 10.2682 75.4453 10.4408 75.0352 10.6426C75.0091 10.7923 74.9928 10.9388 74.9863 11.082C74.9798 11.2253 74.9766 11.3717 74.9766 11.5215V11.9512C74.9766 12.1139 74.9831 12.2507 74.9961 12.3613C75.0286 12.5501 75.123 12.6966 75.2793 12.8008C75.4421 12.8984 75.6048 12.9733 75.7676 13.0254C75.7611 13.123 75.7415 13.2077 75.709 13.2793C75.6764 13.3444 75.6341 13.4062 75.582 13.4648C75.5365 13.5169 75.4844 13.569 75.4258 13.6211C75.3672 13.6732 75.3086 13.7318 75.25 13.7969C75.1979 13.7643 75.1458 13.7415 75.0938 13.7285C75.0417 13.7155 74.9863 13.709 74.9277 13.709C74.8691 13.7025 74.8105 13.696 74.752 13.6895C74.6934 13.6829 74.6348 13.6699 74.5762 13.6504L74.3613 13.3574C74.2897 13.2598 74.2116 13.1621 74.127 13.0645V12.9766C74.127 12.8008 74.0944 12.6315 74.0293 12.4688C73.9642 12.306 73.9154 12.14 73.8828 11.9707C73.9023 11.9121 73.9154 11.8535 73.9219 11.7949C73.9284 11.7363 73.9316 11.6745 73.9316 11.6094C73.9316 11.4792 73.9251 11.3522 73.9121 11.2285C73.9056 11.1048 73.9089 10.9811 73.9219 10.8574H73.873C73.8145 10.8574 73.7526 10.8737 73.6875 10.9062C73.6224 10.9323 73.5573 10.9648 73.4922 11.0039C73.4336 11.0365 73.375 11.069 73.3164 11.1016C73.2643 11.1276 73.2188 11.1406 73.1797 11.1406C73.1602 11.1406 73.1406 11.1374 73.1211 11.1309C73.1016 11.1243 73.0788 11.1211 73.0527 11.1211C73.0202 11.1211 72.9811 11.1341 72.9355 11.1602C72.89 11.1862 72.8411 11.2155 72.7891 11.248C72.7305 11.2741 72.6719 11.3001 72.6133 11.3262C72.5547 11.3522 72.4961 11.3652 72.4375 11.3652C72.3464 11.3652 72.2552 11.3262 72.1641 11.248C72.151 11.196 72.1478 11.1471 72.1543 11.1016C72.1543 11.056 72.1543 11.0072 72.1543 10.9551C72.1543 10.903 72.1445 10.8477 72.125 10.7891C72.1706 10.7044 72.2324 10.6393 72.3105 10.5938C72.3822 10.5417 72.4603 10.4961 72.5449 10.457C72.623 10.4115 72.7044 10.3691 72.7891 10.3301C72.8737 10.2845 72.9453 10.2259 73.0039 10.1543H73.0625C73.1536 10.1543 73.235 10.1348 73.3066 10.0957C73.3848 10.0566 73.4727 10.0404 73.5703 10.0469C73.6029 10.0339 73.6257 9.98503 73.6387 9.90039L73.6777 9.91016C73.821 9.91016 73.9479 9.86133 74.0586 9.76367C74.1302 9.36003 74.1888 8.95312 74.2344 8.54297C74.2799 8.13281 74.3027 7.72266 74.3027 7.3125C74.3027 7.27344 74.2897 7.23438 74.2637 7.19531C74.2507 7.14323 74.2441 7.0944 74.2441 7.04883V6.90234C74.2441 6.83073 74.2474 6.75586 74.2539 6.67773C74.2604 6.59961 74.2767 6.52148 74.3027 6.44336C74.3678 6.4043 74.4362 6.38477 74.5078 6.38477C74.5924 6.38477 74.6738 6.39779 74.752 6.42383C74.8366 6.44336 74.918 6.45964 74.9961 6.47266C75.0547 6.53125 75.097 6.59635 75.123 6.66797C75.1556 6.73958 75.1751 6.81445 75.1816 6.89258C75.1882 6.96419 75.1882 7.03906 75.1816 7.11719C75.1816 7.1888 75.1816 7.26042 75.1816 7.33203C75.1816 7.47526 75.1979 7.61523 75.2305 7.75195C75.263 7.88867 75.2793 8.02214 75.2793 8.15234C75.2793 8.1849 75.2663 8.21094 75.2402 8.23047C75.2207 8.24349 75.2109 8.28581 75.2109 8.35742C75.2109 8.42904 75.2174 8.50391 75.2305 8.58203C75.2435 8.66016 75.25 8.73828 75.25 8.81641C75.25 8.90755 75.237 9.00195 75.2109 9.09961C75.1849 9.19727 75.1621 9.29167 75.1426 9.38281C75.5332 9.35026 75.9336 9.30143 76.3438 9.23633C76.7539 9.17122 77.1445 9.06706 77.5156 8.92383C77.5221 8.91081 77.5254 8.89128 77.5254 8.86523C77.5254 8.82617 77.5221 8.78711 77.5156 8.74805C77.5091 8.70898 77.5059 8.66667 77.5059 8.62109C77.5059 8.54297 77.5319 8.48112 77.584 8.43555C77.5514 8.25326 77.5286 8.07096 77.5156 7.88867C77.5026 7.70638 77.4961 7.52409 77.4961 7.3418V6.78516C77.4961 6.60286 77.4928 6.42057 77.4863 6.23828C77.5384 6.20573 77.5938 6.18945 77.6523 6.18945C77.724 6.18945 77.7891 6.20898 77.8477 6.24805C77.9128 6.2806 77.9876 6.29688 78.0723 6.29688C78.1309 6.29688 78.1797 6.28711 78.2188 6.26758C78.2904 6.33268 78.3392 6.41732 78.3652 6.52148C78.3913 6.62565 78.4141 6.73307 78.4336 6.84375C78.4531 6.95443 78.4727 7.0651 78.4922 7.17578C78.5182 7.27995 78.5671 7.36458 78.6387 7.42969L78.6484 7.45898C78.6484 7.48503 78.6354 7.50456 78.6094 7.51758C78.5833 7.5306 78.5703 7.55664 78.5703 7.5957V7.63477C78.5964 7.73893 78.6159 7.84635 78.6289 7.95703C78.6419 8.06771 78.6517 8.18164 78.6582 8.29883C78.6712 8.40951 78.6875 8.52018 78.707 8.63086C78.7266 8.73503 78.7624 8.83268 78.8145 8.92383C78.847 8.91732 78.8893 8.91406 78.9414 8.91406C79.0716 8.91406 79.1725 8.95964 79.2441 9.05078C79.3223 9.13542 79.3906 9.22331 79.4492 9.31445ZM86.2559 7.66406V7.70312C86.2103 7.71615 86.1875 7.7487 86.1875 7.80078C86.1159 7.83333 86.041 7.85938 85.9629 7.87891C85.8848 7.89193 85.8099 7.91471 85.7383 7.94727C85.6667 7.94076 85.5918 7.9375 85.5137 7.9375C85.4421 7.93099 85.3704 7.92773 85.2988 7.92773C85.1035 7.92773 84.9082 7.93424 84.7129 7.94727C84.5176 7.96029 84.3223 7.96029 84.127 7.94727C84.0358 7.99935 83.9349 8.04167 83.8242 8.07422C83.7201 8.10026 83.6191 8.11328 83.5215 8.11328C83.4434 8.11328 83.375 8.10352 83.3164 8.08398C83.1602 8.16211 82.9876 8.22721 82.7988 8.2793C82.6165 8.33138 82.431 8.38346 82.2422 8.43555C82.0534 8.48112 81.8711 8.53646 81.6953 8.60156C81.526 8.66016 81.3763 8.74479 81.2461 8.85547C81.2331 8.94661 81.2233 9.03776 81.2168 9.12891C81.2103 9.21354 81.207 9.29818 81.207 9.38281C81.207 9.47396 81.2103 9.55859 81.2168 9.63672C81.2298 9.71484 81.2526 9.79297 81.2852 9.87109C81.3177 9.88411 81.3535 9.89388 81.3926 9.90039C81.4382 9.9069 81.4772 9.91016 81.5098 9.91016C81.5423 9.91016 81.5749 9.9069 81.6074 9.90039C81.64 9.88737 81.6628 9.86458 81.6758 9.83203C81.7734 9.81901 81.8711 9.81576 81.9688 9.82227C82.0664 9.82227 82.1641 9.82227 82.2617 9.82227C82.3594 9.82227 82.4538 9.81901 82.5449 9.8125C82.6426 9.80599 82.737 9.78971 82.8281 9.76367C82.9323 9.73763 83.0332 9.72135 83.1309 9.71484C83.235 9.70833 83.3359 9.70182 83.4336 9.69531C83.5312 9.6888 83.6322 9.67904 83.7363 9.66602C83.8405 9.64648 83.9479 9.61068 84.0586 9.55859C84.1432 9.59115 84.2279 9.60742 84.3125 9.60742C84.4036 9.60742 84.4915 9.61393 84.5762 9.62695C84.6217 9.65951 84.6576 9.69531 84.6836 9.73438C84.7161 9.77344 84.7324 9.81901 84.7324 9.87109C84.7324 9.96224 84.6999 10.0534 84.6348 10.1445C84.5697 10.2357 84.5176 10.3203 84.4785 10.3984H84.3711C84.2148 10.3984 84.0618 10.4212 83.9121 10.4668C83.7689 10.5059 83.6224 10.5547 83.4727 10.6133C83.3294 10.6654 83.1829 10.7142 83.0332 10.7598C82.89 10.7988 82.7402 10.8184 82.584 10.8184C82.5579 10.8184 82.5417 10.8346 82.5352 10.8672C82.5352 10.8932 82.5286 10.9128 82.5156 10.9258C82.4831 10.9193 82.4342 10.916 82.3691 10.916C82.2194 10.916 82.0762 10.9323 81.9395 10.9648C81.8027 10.9974 81.6628 11.0137 81.5195 11.0137C81.4805 11.0137 81.4414 11.0137 81.4023 11.0137C81.3633 11.0072 81.3242 11.0007 81.2852 10.9941C81.2526 11.0462 81.2103 11.082 81.1582 11.1016C81.1061 11.1146 81.0573 11.1406 81.0117 11.1797C80.9922 11.2383 80.9792 11.3099 80.9727 11.3945C80.9727 11.4792 80.9694 11.5671 80.9629 11.6582C80.9629 11.7428 80.9564 11.8242 80.9434 11.9023C80.9303 11.9805 80.9043 12.0423 80.8652 12.0879C80.8717 12.1204 80.8978 12.1335 80.9434 12.127C80.9889 12.1139 81.0117 12.1335 81.0117 12.1855C81.0117 12.2441 81.0052 12.306 80.9922 12.3711C80.9792 12.4362 80.9727 12.5013 80.9727 12.5664C80.9727 12.6901 80.9857 12.8268 81.0117 12.9766C81.0443 13.1198 81.0898 13.2533 81.1484 13.377C81.2135 13.5007 81.2982 13.6048 81.4023 13.6895C81.5065 13.7676 81.6367 13.8066 81.793 13.8066C81.8971 13.8066 81.9948 13.7871 82.0859 13.748C82.1771 13.709 82.252 13.6439 82.3105 13.5527L82.3594 13.543C82.3854 13.543 82.4082 13.5462 82.4277 13.5527C82.4538 13.5592 82.4798 13.5625 82.5059 13.5625C82.5449 13.5625 82.5938 13.5397 82.6523 13.4941C82.7174 13.4421 82.7858 13.3835 82.8574 13.3184C82.9355 13.2533 83.0137 13.1914 83.0918 13.1328C83.1699 13.0677 83.2448 13.0221 83.3164 12.9961C83.362 12.9049 83.4043 12.8138 83.4434 12.7227C83.4889 12.6315 83.554 12.5599 83.6387 12.5078V12.2246C83.7038 12.153 83.7721 12.0879 83.8438 12.0293C83.9219 11.9707 83.9805 11.8958 84.0195 11.8047C84.0521 11.8177 84.0814 11.8275 84.1074 11.834C84.14 11.8405 84.1725 11.8438 84.2051 11.8438C84.2376 11.8438 84.2702 11.8405 84.3027 11.834C84.3418 11.8275 84.3776 11.8177 84.4102 11.8047C84.4622 11.8763 84.5013 11.9577 84.5273 12.0488C84.5599 12.1335 84.599 12.2148 84.6445 12.293C84.5859 12.4102 84.5176 12.5501 84.4395 12.7129C84.3613 12.8757 84.2767 13.0384 84.1855 13.2012C84.0944 13.3639 83.9967 13.5202 83.8926 13.6699C83.7949 13.8132 83.6973 13.9238 83.5996 14.002C83.5801 14.0215 83.5378 14.0443 83.4727 14.0703C83.401 14.1224 83.3359 14.1712 83.2773 14.2168C83.2188 14.2689 83.1634 14.3275 83.1113 14.3926C82.9225 14.4512 82.7402 14.5293 82.5645 14.627C82.3952 14.7246 82.2259 14.819 82.0566 14.9102C81.9785 14.8906 81.8939 14.8809 81.8027 14.8809C81.7246 14.8809 81.6465 14.8841 81.5684 14.8906C81.4902 14.9036 81.4056 14.9102 81.3145 14.9102C81.2884 14.8776 81.2493 14.8548 81.1973 14.8418C81.1517 14.8353 81.1354 14.8027 81.1484 14.7441C80.9271 14.7311 80.748 14.6693 80.6113 14.5586C80.4746 14.4544 80.3574 14.3242 80.2598 14.168C80.1686 14.0117 80.0938 13.8424 80.0352 13.6602C79.9766 13.4779 79.9147 13.3021 79.8496 13.1328V13.1035C79.8496 13.071 79.8626 13.0514 79.8887 13.0449C79.9147 13.0384 79.9277 13.0189 79.9277 12.9863C79.9277 12.9733 79.9245 12.9635 79.918 12.957C79.8984 12.8854 79.8822 12.8236 79.8691 12.7715C79.8561 12.7194 79.8496 12.6576 79.8496 12.5859C79.8496 12.4818 79.8561 12.3809 79.8691 12.2832C79.8822 12.179 79.8887 12.0749 79.8887 11.9707C79.8887 11.8665 79.8757 11.7754 79.8496 11.6973C79.8757 11.6647 79.8984 11.6224 79.918 11.5703C79.931 11.5117 79.9408 11.4531 79.9473 11.3945C79.9538 11.3359 79.957 11.2773 79.957 11.2188C79.9635 11.1602 79.9733 11.1081 79.9863 11.0625C79.9603 10.9909 79.9375 10.929 79.918 10.877C79.8984 10.8184 79.8887 10.75 79.8887 10.6719V10.6035C79.9538 10.4928 80.0091 10.3789 80.0547 10.2617C80.1003 10.1445 80.1491 10.0241 80.2012 9.90039V9.87109C80.2012 9.68229 80.1947 9.49349 80.1816 9.30469C80.1686 9.11589 80.1621 8.92708 80.1621 8.73828V8.55273C80.1621 8.48763 80.1654 8.42578 80.1719 8.36719C80.224 8.34115 80.263 8.30534 80.2891 8.25977C80.3151 8.21419 80.3542 8.17839 80.4062 8.15234H80.7285L80.7871 8.05469C80.8066 8.02214 80.8197 7.98633 80.8262 7.94727C80.8978 7.92773 80.9661 7.90169 81.0312 7.86914C81.1029 7.83008 81.168 7.79102 81.2266 7.75195C81.3177 7.69987 81.3991 7.6543 81.4707 7.61523C81.5488 7.56966 81.6237 7.53385 81.6953 7.50781C81.7734 7.47526 81.8548 7.44922 81.9395 7.42969C82.0241 7.41016 82.1217 7.39388 82.2324 7.38086C82.2845 7.38086 82.3171 7.37109 82.3301 7.35156C82.3496 7.33203 82.3757 7.30924 82.4082 7.2832C82.4863 7.29622 82.5645 7.30924 82.6426 7.32227C82.7207 7.32878 82.7988 7.33203 82.877 7.33203C83.0332 7.33203 83.1797 7.30273 83.3164 7.24414C83.5117 7.24414 83.7038 7.24089 83.8926 7.23438C84.0879 7.22786 84.2832 7.22461 84.4785 7.22461C84.6478 7.22461 84.8171 7.23112 84.9863 7.24414C85.1556 7.25716 85.3216 7.27995 85.4844 7.3125C85.543 7.29297 85.6081 7.2832 85.6797 7.2832C85.7578 7.2832 85.8359 7.29297 85.9141 7.3125C85.9987 7.32552 86.0801 7.32552 86.1582 7.3125C86.1647 7.38411 86.181 7.44596 86.207 7.49805C86.2396 7.54362 86.2559 7.59896 86.2559 7.66406ZM98.2773 12.1758C98.2643 12.2734 98.2285 12.3483 98.1699 12.4004C98.1178 12.4525 98.056 12.5013 97.9844 12.5469C97.9518 12.5404 97.9193 12.5371 97.8867 12.5371C97.8607 12.5306 97.8314 12.5273 97.7988 12.5273C97.597 12.5208 97.4049 12.5469 97.2227 12.6055C97.0469 12.6641 96.8646 12.7064 96.6758 12.7324C96.6107 12.7454 96.5488 12.752 96.4902 12.752C96.4382 12.7454 96.3828 12.7487 96.3242 12.7617C96.1159 12.7943 95.8945 12.8203 95.6602 12.8398C95.4258 12.8594 95.1914 12.8854 94.957 12.918C94.7227 12.944 94.4915 12.9798 94.2637 13.0254C94.0423 13.0645 93.834 13.123 93.6387 13.2012C93.6191 13.1882 93.5996 13.1751 93.5801 13.1621C93.5605 13.1426 93.5378 13.1328 93.5117 13.1328C93.4466 13.1328 93.3848 13.1426 93.3262 13.1621C93.2676 13.1816 93.209 13.1882 93.1504 13.1816C93.0853 13.2207 93.0137 13.25 92.9355 13.2695C92.8639 13.2826 92.7891 13.2956 92.7109 13.3086C92.6393 13.3151 92.5677 13.3281 92.4961 13.3477C92.4245 13.3672 92.3561 13.403 92.291 13.4551C92.2389 13.429 92.1738 13.416 92.0957 13.416C92.0241 13.4095 91.9753 13.3835 91.9492 13.3379C91.7995 13.4095 91.64 13.4551 91.4707 13.4746C91.3079 13.4941 91.1419 13.5007 90.9727 13.4941C90.862 13.4876 90.735 13.4714 90.5918 13.4453C90.4486 13.4193 90.3053 13.3835 90.1621 13.3379C90.0189 13.2858 89.8854 13.2272 89.7617 13.1621C89.638 13.0905 89.5436 13.0059 89.4785 12.9082C89.4329 12.8431 89.4004 12.7715 89.3809 12.6934C89.3613 12.6152 89.3158 12.5566 89.2441 12.5176C89.2637 12.3678 89.2865 12.2214 89.3125 12.0781C89.3385 11.9349 89.3646 11.7884 89.3906 11.6387C89.5208 11.528 89.6445 11.4108 89.7617 11.2871C89.8789 11.1634 89.9896 11.0332 90.0938 10.8965C90.2174 10.8379 90.3314 10.7663 90.4355 10.6816C90.5462 10.597 90.6536 10.5124 90.7578 10.4277C90.8685 10.3366 90.9759 10.2487 91.0801 10.1641C91.1908 10.0794 91.3079 10.0046 91.4316 9.93945C91.4512 9.89388 91.4772 9.85807 91.5098 9.83203C91.5488 9.79948 91.5879 9.77018 91.627 9.74414C91.666 9.71159 91.7018 9.67904 91.7344 9.64648C91.7669 9.60742 91.7897 9.56185 91.8027 9.50977C92.0306 9.37305 92.2292 9.20052 92.3984 8.99219C92.5677 8.78385 92.6784 8.54948 92.7305 8.28906C92.6198 8.19792 92.4928 8.13932 92.3496 8.11328C92.2129 8.08073 92.0697 8.05794 91.9199 8.04492C91.7897 8.03841 91.653 8.03841 91.5098 8.04492C91.373 8.05143 91.2331 8.04818 91.0898 8.03516C90.9466 8.08073 90.7969 8.11003 90.6406 8.12305C90.4909 8.13607 90.3411 8.14909 90.1914 8.16211C90.0417 8.16862 89.8919 8.18815 89.7422 8.2207C89.599 8.24674 89.459 8.29883 89.3223 8.37695C89.2962 8.37695 89.2702 8.3737 89.2441 8.36719C89.2246 8.36068 89.2018 8.35742 89.1758 8.35742C88.9674 8.35091 88.7721 8.39323 88.5898 8.48438C88.4076 8.56901 88.2285 8.65365 88.0527 8.73828C88.0397 8.76432 88.0332 8.78385 88.0332 8.79688C88.0332 8.83594 88.0397 8.875 88.0527 8.91406C88.0723 8.94661 88.082 8.98242 88.082 9.02148C88.0755 9.02799 88.0723 9.03451 88.0723 9.04102C88.0723 9.04753 88.069 9.05404 88.0625 9.06055C88.056 9.0931 88.0462 9.1224 88.0332 9.14844C88.0267 9.17448 88.0169 9.20378 88.0039 9.23633C87.9323 9.44466 87.8932 9.64974 87.8867 9.85156C87.8802 10.0208 87.8802 10.1868 87.8867 10.3496C87.8932 10.5124 87.8932 10.6784 87.8867 10.8477C87.8737 11.056 87.8411 11.2513 87.7891 11.4336C87.8216 11.5898 87.8509 11.7559 87.877 11.9316C87.903 12.1009 87.9355 12.2702 87.9746 12.4395C88.0137 12.6087 88.0592 12.7747 88.1113 12.9375C88.1699 13.0938 88.2448 13.2435 88.3359 13.3867C88.3294 13.3997 88.3327 13.4095 88.3457 13.416C88.3587 13.4225 88.3717 13.4258 88.3848 13.4258H88.4629C88.4954 13.4258 88.5085 13.4388 88.502 13.4648C88.515 13.4844 88.5247 13.5039 88.5312 13.5234C88.5378 13.5365 88.5508 13.5495 88.5703 13.5625C88.5833 13.582 88.5833 13.6081 88.5703 13.6406C88.5638 13.7708 88.5312 13.8913 88.4727 14.002C88.4141 14.1126 88.3783 14.2331 88.3652 14.3633C88.2871 14.3828 88.2155 14.3926 88.1504 14.3926C88.0397 14.3861 87.9421 14.3535 87.8574 14.2949C87.7728 14.2428 87.6947 14.1777 87.623 14.0996C87.5514 14.0215 87.4831 13.9434 87.418 13.8652C87.3529 13.7806 87.2812 13.709 87.2031 13.6504C87.1576 13.4681 87.112 13.2663 87.0664 13.0449C87.0273 12.8236 86.959 12.6348 86.8613 12.4785C86.8874 12.4199 86.9004 12.3483 86.9004 12.2637C86.9069 12.1335 86.8939 12.0065 86.8613 11.8828C86.8353 11.7526 86.8288 11.6224 86.8418 11.4922C86.8418 11.4206 86.8483 11.349 86.8613 11.2773C86.8809 11.2057 86.8939 11.1341 86.9004 11.0625C86.9069 10.9518 86.8939 10.8444 86.8613 10.7402C86.8353 10.6361 86.8255 10.5286 86.832 10.418C86.8385 10.3659 86.8483 10.3171 86.8613 10.2715C86.8809 10.2194 86.9069 10.1738 86.9395 10.1348C86.9069 10.0566 86.8971 9.98177 86.9102 9.91016C86.9167 9.79948 86.9297 9.69531 86.9492 9.59766C86.9688 9.5 86.9818 9.40234 86.9883 9.30469C86.9883 9.2526 86.985 9.20378 86.9785 9.1582C86.972 9.10612 86.9622 9.05729 86.9492 9.01172L86.8613 8.98242C86.8223 8.98242 86.7832 8.99219 86.7441 9.01172C86.7116 9.03125 86.6823 9.05404 86.6562 9.08008C86.6302 9.10612 86.6074 9.12891 86.5879 9.14844C86.5684 9.16146 86.5488 9.16797 86.5293 9.16797C86.5163 9.16797 86.5 9.16797 86.4805 9.16797C86.4674 9.16146 86.4544 9.1582 86.4414 9.1582C86.4284 9.1582 86.4023 9.17122 86.3633 9.19727C86.3307 9.22331 86.2884 9.2526 86.2363 9.28516C86.1908 9.3112 86.1452 9.34049 86.0996 9.37305C86.054 9.39909 86.0182 9.41536 85.9922 9.42188C85.9206 9.40885 85.862 9.38607 85.8164 9.35352C85.7773 9.31445 85.7383 9.27865 85.6992 9.24609C85.6667 9.20703 85.6309 9.17448 85.5918 9.14844C85.5527 9.11589 85.5039 9.10286 85.4453 9.10938C85.4258 9.07031 85.416 9.02799 85.416 8.98242C85.4095 8.93685 85.4095 8.89128 85.416 8.8457V8.68945C85.4616 8.60482 85.5234 8.53646 85.6016 8.48438C85.6732 8.42578 85.7513 8.37695 85.8359 8.33789L86.0898 8.2207C86.1745 8.18164 86.2526 8.13281 86.3242 8.07422H86.4121C86.5293 8.08073 86.6302 8.05794 86.7148 8.00586C86.806 7.95378 86.8906 7.89518 86.9688 7.83008C87.0469 7.75846 87.125 7.68685 87.2031 7.61523C87.2878 7.54362 87.3789 7.48828 87.4766 7.44922C87.5482 7.48177 87.623 7.51107 87.7012 7.53711C87.7793 7.55664 87.8607 7.56966 87.9453 7.57617C88.0299 7.57617 88.1178 7.56315 88.209 7.53711C88.3001 7.51107 88.3717 7.46224 88.4238 7.39062C88.4564 7.40365 88.4824 7.41341 88.502 7.41992C88.528 7.41992 88.5573 7.41992 88.5898 7.41992C88.6875 7.42643 88.7852 7.41341 88.8828 7.38086C88.9805 7.3418 89.0749 7.29622 89.166 7.24414C89.2962 7.25065 89.4232 7.24414 89.5469 7.22461C89.6771 7.19857 89.804 7.17253 89.9277 7.14648C90.0579 7.12044 90.1849 7.09766 90.3086 7.07812C90.4388 7.05208 90.569 7.04232 90.6992 7.04883C90.9141 7.05534 91.1257 7.03581 91.334 6.99023C91.5423 6.94466 91.7539 6.92839 91.9688 6.94141C92.1185 6.94792 92.265 6.96094 92.4082 6.98047C92.5579 6.99349 92.7077 6.99674 92.8574 6.99023C92.9421 7.0293 93.0169 7.0651 93.082 7.09766C93.1536 7.1237 93.2415 7.13021 93.3457 7.11719C93.554 7.29297 93.7428 7.49805 93.9121 7.73242V7.89844C93.9056 8.04818 93.8796 8.19466 93.834 8.33789C93.7884 8.48112 93.7331 8.62435 93.668 8.76758C93.6094 8.9043 93.5443 9.04102 93.4727 9.17773C93.401 9.30794 93.3327 9.43815 93.2676 9.56836C92.8444 9.95247 92.4212 10.3333 91.998 10.7109C91.5749 11.0885 91.1387 11.4531 90.6895 11.8047C90.6764 11.8698 90.6569 11.9284 90.6309 11.9805C90.6113 12.0326 90.5983 12.0879 90.5918 12.1465C90.5918 12.179 90.5951 12.2051 90.6016 12.2246C90.6471 12.2376 90.6862 12.2637 90.7188 12.3027C90.7578 12.3353 90.7708 12.3809 90.7578 12.4395H90.8457C90.8783 12.4395 90.8945 12.4525 90.8945 12.4785L91.0508 12.4883C91.2982 12.5013 91.5456 12.4948 91.793 12.4688C92.0404 12.4427 92.2878 12.4134 92.5352 12.3809C92.7891 12.3483 93.0397 12.319 93.2871 12.293C93.5345 12.2604 93.7819 12.2409 94.0293 12.2344C94.0879 12.2148 94.1497 12.1986 94.2148 12.1855C94.2799 12.1725 94.3385 12.1465 94.3906 12.1074H94.4199C94.4655 12.1074 94.498 12.1204 94.5176 12.1465C94.5436 12.1725 94.5794 12.1888 94.625 12.1953C94.6576 12.1953 94.6901 12.1888 94.7227 12.1758C94.7617 12.1628 94.8008 12.153 94.8398 12.1465C94.931 12.1204 95.0254 12.1042 95.123 12.0977C95.2272 12.0911 95.3281 12.0814 95.4258 12.0684C95.8034 12.0358 96.1777 12.0163 96.5488 12.0098C96.9199 11.9967 97.291 11.9479 97.6621 11.8633C97.6947 11.9089 97.7402 11.9414 97.7988 11.9609C97.8574 11.974 97.9193 11.9902 97.9844 12.0098C98.0495 12.0228 98.1081 12.0391 98.1602 12.0586C98.2188 12.0781 98.2578 12.1172 98.2773 12.1758ZM55.6699 34.4277V34.4961C55.6699 34.5156 55.6667 34.5352 55.6602 34.5547C55.5885 34.6914 55.5007 34.7956 55.3965 34.8672C55.2923 34.9388 55.1621 34.9746 55.0059 34.9746C54.9017 34.9746 54.8236 34.9648 54.7715 34.9453C54.7259 34.9258 54.6641 34.89 54.5859 34.8379C54.4688 34.8509 54.3353 34.8639 54.1855 34.877C54.0358 34.8835 53.8861 34.8997 53.7363 34.9258C53.5866 34.9453 53.4434 34.9746 53.3066 35.0137C53.1764 35.0527 53.0658 35.1113 52.9746 35.1895C52.916 35.6387 52.8835 36.0879 52.877 36.5371C52.877 36.9798 52.8704 37.4258 52.8574 37.875C52.9095 38.0117 52.9453 38.1615 52.9648 38.3242C52.9844 38.4935 52.9974 38.6465 53.0039 38.7832C53.0495 38.8613 53.0853 38.9395 53.1113 39.0176C53.1374 39.1022 53.1634 39.1868 53.1895 39.2715C53.2155 39.3561 53.2448 39.4375 53.2773 39.5156C53.3164 39.5938 53.3652 39.6654 53.4238 39.7305C53.4759 39.7305 53.5215 39.7337 53.5605 39.7402C53.6061 39.7533 53.6517 39.7663 53.6973 39.7793V39.8379C53.6973 39.9355 53.7266 40.0072 53.7852 40.0527C53.8438 40.0983 53.9089 40.1471 53.9805 40.1992C54 40.2708 54.0098 40.3392 54.0098 40.4043C54.0098 40.515 53.9837 40.6191 53.9316 40.7168C53.8861 40.8145 53.8079 40.8828 53.6973 40.9219C53.6322 40.9219 53.5703 40.9121 53.5117 40.8926C53.4531 40.8796 53.3913 40.873 53.3262 40.873C53.2806 40.873 53.2318 40.8796 53.1797 40.8926C53.1471 40.8796 53.1178 40.86 53.0918 40.834C53.0723 40.8145 53.0495 40.7949 53.0234 40.7754C52.9974 40.7559 52.9681 40.7396 52.9355 40.7266C52.9095 40.7135 52.8737 40.7103 52.8281 40.7168C52.7956 40.6257 52.7435 40.541 52.6719 40.4629C52.6003 40.3848 52.5124 40.3522 52.4082 40.3652C52.4147 40.3392 52.418 40.3001 52.418 40.248C52.418 40.1569 52.3984 40.0723 52.3594 39.9941C52.3268 39.916 52.2747 39.8542 52.2031 39.8086C52.1706 39.6589 52.1413 39.4928 52.1152 39.3105C52.0892 39.1348 52.0339 38.9818 51.9492 38.8516C51.9492 38.6628 51.9297 38.4805 51.8906 38.3047C51.8516 38.1354 51.8158 37.9596 51.7832 37.7773C51.8092 37.6732 51.8223 37.556 51.8223 37.4258C51.8223 37.3346 51.819 37.2467 51.8125 37.1621C51.806 37.071 51.8027 36.9831 51.8027 36.8984C51.8027 36.8073 51.8092 36.7194 51.8223 36.6348C51.8353 36.5436 51.8678 36.4557 51.9199 36.3711C51.8809 36.306 51.8548 36.2409 51.8418 36.1758C51.8288 36.1042 51.8223 36.0326 51.8223 35.9609C51.8223 35.8503 51.8288 35.7428 51.8418 35.6387L51.8809 35.3262C51.8678 35.3197 51.8451 35.3164 51.8125 35.3164C51.7474 35.3164 51.6921 35.3294 51.6465 35.3555L51.5 35.4238C51.4674 35.4173 51.4382 35.4141 51.4121 35.4141H51.3242C51.2266 35.4141 51.1289 35.4303 51.0312 35.4629C50.9401 35.4889 50.8587 35.5378 50.7871 35.6094C50.5658 35.6094 50.3444 35.6322 50.123 35.6777C49.9017 35.7168 49.6803 35.7656 49.459 35.8242C49.2441 35.8828 49.0293 35.9479 48.8145 36.0195C48.5996 36.0846 48.3848 36.1432 48.1699 36.1953C48.1178 36.4492 48.0788 36.7064 48.0527 36.9668C48.0267 37.2207 48.0137 37.4811 48.0137 37.748V37.9824C48.0137 38.0671 48.0202 38.1484 48.0332 38.2266C48.0397 38.2786 48.056 38.3242 48.082 38.3633C48.1146 38.4089 48.1309 38.4577 48.1309 38.5098C48.1309 38.5553 48.1211 38.5911 48.1016 38.6172C48.1471 38.6953 48.2155 38.7637 48.3066 38.8223C48.4043 38.7897 48.4889 38.7734 48.5605 38.7734C48.6777 38.7734 48.7884 38.7995 48.8926 38.8516C48.9967 38.9102 49.1074 38.9492 49.2246 38.9688C49.1986 39.0599 49.1595 39.1478 49.1074 39.2324C49.0553 39.3236 49.0228 39.4212 49.0098 39.5254C48.9837 39.5384 48.9577 39.5449 48.9316 39.5449C48.9121 39.5449 48.8926 39.5449 48.873 39.5449C48.8535 39.5514 48.8372 39.5645 48.8242 39.584C48.8177 39.6035 48.821 39.6426 48.834 39.7012C48.7428 39.7467 48.6517 39.776 48.5605 39.7891C48.4694 39.8086 48.375 39.8216 48.2773 39.8281C48.1862 39.8346 48.0918 39.8379 47.9941 39.8379C47.903 39.8379 47.8086 39.8411 47.7109 39.8477C47.7109 39.8086 47.7012 39.776 47.6816 39.75C47.6686 39.7305 47.6491 39.7142 47.623 39.7012C47.597 39.6947 47.5677 39.6849 47.5352 39.6719C47.5091 39.6589 47.4863 39.6426 47.4668 39.623C47.4147 39.5775 47.3724 39.5156 47.3398 39.4375C47.3138 39.3659 47.2845 39.2878 47.252 39.2031C47.2259 39.125 47.1966 39.0469 47.1641 38.9688C47.1315 38.8906 47.0924 38.819 47.0469 38.7539C47.0339 38.6107 47.0241 38.4707 47.0176 38.334C47.0111 38.1973 47.0078 38.0573 47.0078 37.9141C47.0078 37.6471 47.0176 37.3867 47.0371 37.1328C47.0566 36.8724 47.0729 36.6055 47.0859 36.332C47.0273 36.2734 46.959 36.2474 46.8809 36.2539C46.8092 36.2604 46.7376 36.2539 46.666 36.2344C46.5879 36.1367 46.5228 36.0293 46.4707 35.9121C46.4186 35.7884 46.3926 35.6615 46.3926 35.5312C46.3926 35.4661 46.4023 35.3978 46.4219 35.3262C46.4805 35.3066 46.5456 35.2871 46.6172 35.2676C46.6888 35.248 46.7279 35.196 46.7344 35.1113C46.7799 35.1374 46.8353 35.1504 46.9004 35.1504C46.9655 35.1504 47.0306 35.1406 47.0957 35.1211C47.1608 35.1016 47.2259 35.0853 47.291 35.0723C47.3171 34.9681 47.3366 34.8672 47.3496 34.7695C47.3691 34.6654 47.3724 34.5579 47.3594 34.4473C47.4505 34.3105 47.5091 34.1608 47.5352 33.998C47.5677 33.8353 47.5905 33.679 47.6035 33.5293V33.3926C47.6035 33.347 47.6068 33.3014 47.6133 33.2559C47.6263 33.1842 47.6458 33.1029 47.6719 33.0117C47.6979 32.9206 47.7207 32.8359 47.7402 32.7578C47.7728 32.6341 47.7923 32.5169 47.7988 32.4062C47.8118 32.2956 47.8184 32.1816 47.8184 32.0645V32.0254C47.8184 31.9928 47.8053 31.9701 47.7793 31.957C47.7533 31.9375 47.7402 31.9115 47.7402 31.8789L47.75 31.8594C47.776 31.651 47.8053 31.446 47.8379 31.2441C47.877 31.0358 47.929 30.8307 47.9941 30.6289C47.9421 30.4792 47.916 30.3099 47.916 30.1211C47.916 29.8737 47.9551 29.6361 48.0332 29.4082C47.9941 29.304 47.9746 29.2031 47.9746 29.1055C47.9746 29.0273 47.9779 28.9492 47.9844 28.8711C47.9974 28.793 48.0007 28.7148 47.9941 28.6367C48.0592 28.6042 48.1113 28.5586 48.1504 28.5C48.196 28.4414 48.248 28.3926 48.3066 28.3535C48.502 28.347 48.6647 28.4121 48.7949 28.5488C48.9316 28.6855 49 28.8516 49 29.0469C49 29.1966 48.9577 29.3398 48.873 29.4766C48.8991 29.6003 48.9121 29.7435 48.9121 29.9062C48.9121 30.1471 48.8958 30.388 48.8633 30.6289C48.8307 30.8698 48.821 31.1139 48.834 31.3613C48.7949 31.4525 48.7754 31.5632 48.7754 31.6934C48.7819 31.8236 48.7786 31.9342 48.7656 32.0254C48.7526 32.1165 48.7331 32.2109 48.707 32.3086C48.681 32.3997 48.6647 32.4909 48.6582 32.582C48.6517 32.7318 48.6452 32.8815 48.6387 33.0312C48.6387 33.181 48.6224 33.3242 48.5898 33.4609C48.5768 33.513 48.5573 33.5586 48.5312 33.5977C48.5117 33.6302 48.4954 33.6693 48.4824 33.7148C48.4564 33.8516 48.4466 33.9915 48.4531 34.1348C48.4661 34.2715 48.4661 34.4115 48.4531 34.5547C48.4466 34.6003 48.4336 34.6458 48.4141 34.6914C48.401 34.737 48.3945 34.7858 48.3945 34.8379C48.3945 34.8639 48.401 34.8965 48.4141 34.9355C49.0065 34.8835 49.5957 34.7956 50.1816 34.6719C50.7676 34.5482 51.3568 34.4408 51.9492 34.3496C51.9948 34.265 52.0176 34.1771 52.0176 34.0859C52.0176 34.0339 52.0078 33.9818 51.9883 33.9297C52.0534 33.7148 52.1022 33.5 52.1348 33.2852C52.1738 33.0638 52.2064 32.8457 52.2324 32.6309C52.2585 32.416 52.2812 32.2012 52.3008 31.9863C52.3203 31.765 52.3464 31.5469 52.3789 31.332L52.4375 31C52.457 30.8893 52.4831 30.7819 52.5156 30.6777C52.5286 30.6387 52.5417 30.5996 52.5547 30.5605C52.5742 30.5215 52.584 30.4857 52.584 30.4531C52.584 30.4206 52.5645 30.3978 52.5254 30.3848C52.4928 30.3717 52.4766 30.3555 52.4766 30.3359C52.4766 30.3229 52.4798 30.3164 52.4863 30.3164C52.4993 30.3099 52.5091 30.3099 52.5156 30.3164C52.5482 30.2578 52.5677 30.196 52.5742 30.1309C52.5807 30.0658 52.584 30.0007 52.584 29.9355C52.5905 29.8704 52.6003 29.8086 52.6133 29.75C52.6263 29.6849 52.6523 29.6263 52.6914 29.5742C52.6849 29.5286 52.6719 29.4863 52.6523 29.4473C52.6328 29.4082 52.623 29.3626 52.623 29.3105C52.6165 29.304 52.6165 29.2975 52.623 29.291C52.6361 29.2324 52.6426 29.1836 52.6426 29.1445C52.6491 29.099 52.6523 29.0469 52.6523 28.9883C52.6523 28.9102 52.6882 28.8483 52.7598 28.8027C52.7272 28.6921 52.7044 28.5716 52.6914 28.4414C52.6784 28.3112 52.6719 28.1842 52.6719 28.0605C52.6719 27.8913 52.7109 27.7513 52.7891 27.6406C52.8737 27.5234 53.0104 27.4648 53.1992 27.4648C53.2969 27.4648 53.388 27.4844 53.4727 27.5234C53.5638 27.5625 53.6387 27.6178 53.6973 27.6895C53.7298 27.8392 53.7461 27.9792 53.7461 28.1094C53.7461 28.2005 53.7396 28.2884 53.7266 28.373C53.7201 28.4512 53.7168 28.5358 53.7168 28.627C53.7168 28.6986 53.7233 28.7669 53.7363 28.832C53.7493 28.8906 53.7624 28.9525 53.7754 29.0176C53.7168 29.1087 53.6745 29.2096 53.6484 29.3203C53.6224 29.431 53.6029 29.5449 53.5898 29.6621C53.5833 29.7793 53.5768 29.8997 53.5703 30.0234C53.5703 30.1406 53.5671 30.248 53.5605 30.3457C53.541 30.5605 53.5085 30.7721 53.4629 30.9805C53.4238 31.1888 53.3783 31.3971 53.3262 31.6055C53.3457 31.6771 53.3555 31.7422 53.3555 31.8008C53.3555 31.918 53.3392 32.0352 53.3066 32.1523C53.2741 32.263 53.2643 32.3737 53.2773 32.4844C53.2318 32.6016 53.2025 32.722 53.1895 32.8457C53.1764 32.9629 53.1667 33.0866 53.1602 33.2168L53.1406 33.5977C53.1341 33.7214 53.1113 33.8418 53.0723 33.959C53.0853 33.9915 53.1081 34.0111 53.1406 34.0176C53.1797 34.0176 53.1927 34.0436 53.1797 34.0957C53.3294 34.0501 53.4889 34.0306 53.6582 34.0371C53.8275 34.0371 53.987 34.0371 54.1367 34.0371C54.2344 34.0371 54.332 34.0371 54.4297 34.0371C54.5273 34.0306 54.625 34.0176 54.7227 33.998C54.8203 33.972 54.918 33.9427 55.0156 33.9102C55.1198 33.8711 55.2207 33.8516 55.3184 33.8516C55.4551 33.8516 55.5592 33.9004 55.6309 33.998C55.6439 34.0697 55.6536 34.1413 55.6602 34.2129C55.6667 34.2845 55.6699 34.3561 55.6699 34.4277ZM61.7832 31.6641V31.7031C61.7376 31.7161 61.7148 31.7487 61.7148 31.8008C61.6432 31.8333 61.5684 31.8594 61.4902 31.8789C61.4121 31.8919 61.3372 31.9147 61.2656 31.9473C61.194 31.9408 61.1191 31.9375 61.041 31.9375C60.9694 31.931 60.8978 31.9277 60.8262 31.9277C60.6309 31.9277 60.4355 31.9342 60.2402 31.9473C60.0449 31.9603 59.8496 31.9603 59.6543 31.9473C59.5632 31.9993 59.4622 32.0417 59.3516 32.0742C59.2474 32.1003 59.1465 32.1133 59.0488 32.1133C58.9707 32.1133 58.9023 32.1035 58.8438 32.084C58.6875 32.1621 58.515 32.2272 58.3262 32.2793C58.1439 32.3314 57.9583 32.3835 57.7695 32.4355C57.5807 32.4811 57.3984 32.5365 57.2227 32.6016C57.0534 32.6602 56.9036 32.7448 56.7734 32.8555C56.7604 32.9466 56.7507 33.0378 56.7441 33.1289C56.7376 33.2135 56.7344 33.2982 56.7344 33.3828C56.7344 33.474 56.7376 33.5586 56.7441 33.6367C56.7572 33.7148 56.7799 33.793 56.8125 33.8711C56.8451 33.8841 56.8809 33.8939 56.9199 33.9004C56.9655 33.9069 57.0046 33.9102 57.0371 33.9102C57.0697 33.9102 57.1022 33.9069 57.1348 33.9004C57.1673 33.8874 57.1901 33.8646 57.2031 33.832C57.3008 33.819 57.3984 33.8158 57.4961 33.8223C57.5938 33.8223 57.6914 33.8223 57.7891 33.8223C57.8867 33.8223 57.9811 33.819 58.0723 33.8125C58.1699 33.806 58.2643 33.7897 58.3555 33.7637C58.4596 33.7376 58.5605 33.7214 58.6582 33.7148C58.7624 33.7083 58.8633 33.7018 58.9609 33.6953C59.0586 33.6888 59.1595 33.679 59.2637 33.666C59.3678 33.6465 59.4753 33.6107 59.5859 33.5586C59.6706 33.5911 59.7552 33.6074 59.8398 33.6074C59.931 33.6074 60.0189 33.6139 60.1035 33.627C60.1491 33.6595 60.1849 33.6953 60.2109 33.7344C60.2435 33.7734 60.2598 33.819 60.2598 33.8711C60.2598 33.9622 60.2272 34.0534 60.1621 34.1445C60.097 34.2357 60.0449 34.3203 60.0059 34.3984H59.8984C59.7422 34.3984 59.5892 34.4212 59.4395 34.4668C59.2962 34.5059 59.1497 34.5547 59 34.6133C58.8568 34.6654 58.7103 34.7142 58.5605 34.7598C58.4173 34.7988 58.2676 34.8184 58.1113 34.8184C58.0853 34.8184 58.069 34.8346 58.0625 34.8672C58.0625 34.8932 58.056 34.9128 58.043 34.9258C58.0104 34.9193 57.9616 34.916 57.8965 34.916C57.7467 34.916 57.6035 34.9323 57.4668 34.9648C57.3301 34.9974 57.1901 35.0137 57.0469 35.0137C57.0078 35.0137 56.9688 35.0137 56.9297 35.0137C56.8906 35.0072 56.8516 35.0007 56.8125 34.9941C56.7799 35.0462 56.7376 35.082 56.6855 35.1016C56.6335 35.1146 56.5846 35.1406 56.5391 35.1797C56.5195 35.2383 56.5065 35.3099 56.5 35.3945C56.5 35.4792 56.4967 35.5671 56.4902 35.6582C56.4902 35.7428 56.4837 35.8242 56.4707 35.9023C56.4577 35.9805 56.4316 36.0423 56.3926 36.0879C56.3991 36.1204 56.4251 36.1335 56.4707 36.127C56.5163 36.1139 56.5391 36.1335 56.5391 36.1855C56.5391 36.2441 56.5326 36.306 56.5195 36.3711C56.5065 36.4362 56.5 36.5013 56.5 36.5664C56.5 36.6901 56.513 36.8268 56.5391 36.9766C56.5716 37.1198 56.6172 37.2533 56.6758 37.377C56.7409 37.5007 56.8255 37.6048 56.9297 37.6895C57.0339 37.7676 57.1641 37.8066 57.3203 37.8066C57.4245 37.8066 57.5221 37.7871 57.6133 37.748C57.7044 37.709 57.7793 37.6439 57.8379 37.5527L57.8867 37.543C57.9128 37.543 57.9355 37.5462 57.9551 37.5527C57.9811 37.5592 58.0072 37.5625 58.0332 37.5625C58.0723 37.5625 58.1211 37.5397 58.1797 37.4941C58.2448 37.4421 58.3132 37.3835 58.3848 37.3184C58.4629 37.2533 58.541 37.1914 58.6191 37.1328C58.6973 37.0677 58.7721 37.0221 58.8438 36.9961C58.8893 36.9049 58.9316 36.8138 58.9707 36.7227C59.0163 36.6315 59.0814 36.5599 59.166 36.5078V36.2246C59.2311 36.153 59.2995 36.0879 59.3711 36.0293C59.4492 35.9707 59.5078 35.8958 59.5469 35.8047C59.5794 35.8177 59.6087 35.8275 59.6348 35.834C59.6673 35.8405 59.6999 35.8438 59.7324 35.8438C59.765 35.8438 59.7975 35.8405 59.8301 35.834C59.8691 35.8275 59.9049 35.8177 59.9375 35.8047C59.9896 35.8763 60.0286 35.9577 60.0547 36.0488C60.0872 36.1335 60.1263 36.2148 60.1719 36.293C60.1133 36.4102 60.0449 36.5501 59.9668 36.7129C59.8887 36.8757 59.804 37.0384 59.7129 37.2012C59.6217 37.3639 59.5241 37.5202 59.4199 37.6699C59.3223 37.8132 59.2246 37.9238 59.127 38.002C59.1074 38.0215 59.0651 38.0443 59 38.0703C58.9284 38.1224 58.8633 38.1712 58.8047 38.2168C58.7461 38.2689 58.6908 38.3275 58.6387 38.3926C58.4499 38.4512 58.2676 38.5293 58.0918 38.627C57.9225 38.7246 57.7533 38.819 57.584 38.9102C57.5059 38.8906 57.4212 38.8809 57.3301 38.8809C57.252 38.8809 57.1738 38.8841 57.0957 38.8906C57.0176 38.9036 56.9329 38.9102 56.8418 38.9102C56.8158 38.8776 56.7767 38.8548 56.7246 38.8418C56.679 38.8353 56.6628 38.8027 56.6758 38.7441C56.4544 38.7311 56.2754 38.6693 56.1387 38.5586C56.002 38.4544 55.8848 38.3242 55.7871 38.168C55.696 38.0117 55.6211 37.8424 55.5625 37.6602C55.5039 37.4779 55.4421 37.3021 55.377 37.1328V37.1035C55.377 37.071 55.39 37.0514 55.416 37.0449C55.4421 37.0384 55.4551 37.0189 55.4551 36.9863C55.4551 36.9733 55.4518 36.9635 55.4453 36.957C55.4258 36.8854 55.4095 36.8236 55.3965 36.7715C55.3835 36.7194 55.377 36.6576 55.377 36.5859C55.377 36.4818 55.3835 36.3809 55.3965 36.2832C55.4095 36.179 55.416 36.0749 55.416 35.9707C55.416 35.8665 55.403 35.7754 55.377 35.6973C55.403 35.6647 55.4258 35.6224 55.4453 35.5703C55.4583 35.5117 55.4681 35.4531 55.4746 35.3945C55.4811 35.3359 55.4844 35.2773 55.4844 35.2188C55.4909 35.1602 55.5007 35.1081 55.5137 35.0625C55.4876 34.9909 55.4648 34.929 55.4453 34.877C55.4258 34.8184 55.416 34.75 55.416 34.6719V34.6035C55.4811 34.4928 55.5365 34.3789 55.582 34.2617C55.6276 34.1445 55.6764 34.0241 55.7285 33.9004V33.8711C55.7285 33.6823 55.722 33.4935 55.709 33.3047C55.696 33.1159 55.6895 32.9271 55.6895 32.7383V32.5527C55.6895 32.4876 55.6927 32.4258 55.6992 32.3672C55.7513 32.3411 55.7904 32.3053 55.8164 32.2598C55.8424 32.2142 55.8815 32.1784 55.9336 32.1523H56.2559L56.3145 32.0547C56.334 32.0221 56.347 31.9863 56.3535 31.9473C56.4251 31.9277 56.4935 31.9017 56.5586 31.8691C56.6302 31.8301 56.6953 31.791 56.7539 31.752C56.8451 31.6999 56.9264 31.6543 56.998 31.6152C57.0762 31.5697 57.151 31.5339 57.2227 31.5078C57.3008 31.4753 57.3822 31.4492 57.4668 31.4297C57.5514 31.4102 57.6491 31.3939 57.7598 31.3809C57.8118 31.3809 57.8444 31.3711 57.8574 31.3516C57.877 31.332 57.903 31.3092 57.9355 31.2832C58.0137 31.2962 58.0918 31.3092 58.1699 31.3223C58.248 31.3288 58.3262 31.332 58.4043 31.332C58.5605 31.332 58.707 31.3027 58.8438 31.2441C59.0391 31.2441 59.2311 31.2409 59.4199 31.2344C59.6152 31.2279 59.8105 31.2246 60.0059 31.2246C60.1751 31.2246 60.3444 31.2311 60.5137 31.2441C60.6829 31.2572 60.849 31.2799 61.0117 31.3125C61.0703 31.293 61.1354 31.2832 61.207 31.2832C61.2852 31.2832 61.3633 31.293 61.4414 31.3125C61.526 31.3255 61.6074 31.3255 61.6855 31.3125C61.6921 31.3841 61.7083 31.446 61.7344 31.498C61.7669 31.5436 61.7832 31.599 61.7832 31.6641ZM63.4238 36.5371C63.3913 36.5892 63.3522 36.638 63.3066 36.6836C63.2611 36.7227 63.2188 36.765 63.1797 36.8105C63.1341 36.8301 63.082 36.8398 63.0234 36.8398C62.9714 36.8398 62.9193 36.8398 62.8672 36.8398C62.8216 36.8333 62.776 36.8333 62.7305 36.8398C62.6914 36.8398 62.6589 36.8529 62.6328 36.8789C62.5807 36.8659 62.5417 36.8431 62.5156 36.8105C62.4896 36.7715 62.444 36.7487 62.3789 36.7422C62.3529 36.7357 62.3268 36.7357 62.3008 36.7422C62.2031 36.6315 62.112 36.5143 62.0273 36.3906C61.9492 36.2669 61.8743 36.1497 61.8027 36.0391C61.7962 35.7982 61.7767 35.554 61.7441 35.3066C61.7376 35.248 61.7279 35.1895 61.7148 35.1309C61.7018 35.0723 61.6921 35.0169 61.6855 34.9648C61.6855 34.8997 61.6888 34.8379 61.6953 34.7793C61.7083 34.7142 61.7181 34.6556 61.7246 34.6035C61.7507 34.4147 61.7799 34.2292 61.8125 34.0469C61.8451 33.8646 61.8743 33.679 61.9004 33.4902C61.9264 33.321 61.9395 33.1452 61.9395 32.9629C61.9395 32.7741 61.9102 32.5983 61.8516 32.4355L61.8418 32.3867C61.8548 32.3346 61.8678 32.2923 61.8809 32.2598C61.9004 32.2207 61.9134 32.1784 61.9199 32.1328C61.9329 32.0612 61.9167 32.0091 61.8711 31.9766C61.8906 31.9245 61.9232 31.8919 61.9688 31.8789C62.0143 31.8594 62.0404 31.8203 62.0469 31.7617C62.0534 31.7357 62.0534 31.7096 62.0469 31.6836C62.099 31.6641 62.151 31.6478 62.2031 31.6348C62.2617 31.6152 62.3171 31.612 62.3691 31.625C62.4538 31.638 62.5286 31.6673 62.5938 31.7129C62.6589 31.752 62.7207 31.7975 62.7793 31.8496C62.8835 32.1621 62.9258 32.4941 62.9062 32.8457C62.8867 33.1908 62.8542 33.5391 62.8086 33.8906C62.763 34.2422 62.7337 34.5872 62.7207 34.9258C62.7077 35.2578 62.7598 35.5671 62.877 35.8535L62.8965 35.8633C62.929 35.8698 62.9551 35.86 62.9746 35.834C62.9941 35.8014 63.0202 35.7884 63.0527 35.7949C63.0788 35.8079 63.0951 35.8145 63.1016 35.8145C63.1276 35.9447 63.1699 36.0684 63.2285 36.1855C63.2871 36.3027 63.3522 36.4199 63.4238 36.5371ZM74.5273 32.4746C74.5078 32.5332 74.4688 32.5755 74.4102 32.6016C74.3581 32.6211 74.3027 32.6374 74.2441 32.6504C74.1855 32.6634 74.1302 32.6862 74.0781 32.7188C74.0326 32.7448 74.0033 32.7904 73.9902 32.8555L73.9707 32.8652C73.9447 32.8652 73.9251 32.8587 73.9121 32.8457C73.9056 32.8262 73.8991 32.8099 73.8926 32.7969C73.8861 32.7773 73.8763 32.7611 73.8633 32.748C73.8568 32.7285 73.8438 32.7188 73.8242 32.7188C73.7526 32.7188 73.681 32.7253 73.6094 32.7383C73.5443 32.7513 73.4792 32.7578 73.4141 32.7578C73.3164 32.7578 73.2285 32.7448 73.1504 32.7188C73.1048 32.7318 73.0788 32.7611 73.0723 32.8066C73.0723 32.8522 73.0527 32.8815 73.0137 32.8945C72.9811 32.9076 72.9421 32.9141 72.8965 32.9141C72.8509 32.9076 72.8053 32.9108 72.7598 32.9238L72.4473 33.002C72.3431 33.028 72.2389 33.041 72.1348 33.041C72.0762 33.041 72.0339 33.0378 72.0078 33.0312C71.9102 33.1094 71.7995 33.168 71.6758 33.207C71.5521 33.2396 71.4219 33.2721 71.2852 33.3047C71.1549 33.3307 71.0247 33.3665 70.8945 33.4121C70.7708 33.4577 70.6602 33.5293 70.5625 33.627C70.5104 33.6139 70.4648 33.6074 70.4258 33.6074C70.3411 33.6074 70.2663 33.627 70.2012 33.666C70.1361 33.6986 70.0677 33.7311 69.9961 33.7637C69.9635 33.7767 69.931 33.7832 69.8984 33.7832C69.8659 33.7832 69.8301 33.7897 69.791 33.8027C69.752 33.8158 69.7259 33.8385 69.7129 33.8711C69.7064 33.8971 69.6868 33.9232 69.6543 33.9492C69.6543 34.1836 69.6771 34.418 69.7227 34.6523C69.7682 34.8802 69.791 35.1113 69.791 35.3457V35.3848C69.804 35.4954 69.8398 35.5996 69.8984 35.6973C69.957 35.7884 69.9863 35.8828 69.9863 35.9805C69.9863 36.013 69.9798 36.0488 69.9668 36.0879C70.1361 36.127 70.2467 36.2148 70.2988 36.3516C70.3574 36.4818 70.403 36.625 70.4355 36.7812C70.4746 36.931 70.5234 37.071 70.582 37.2012C70.6471 37.3314 70.7708 37.4128 70.9531 37.4453C70.9661 37.5104 70.9759 37.5788 70.9824 37.6504C70.9889 37.7155 70.9922 37.7806 70.9922 37.8457C70.9922 37.9368 70.9824 38.0247 70.9629 38.1094C70.9434 38.2005 70.9043 38.2819 70.8457 38.3535C70.748 38.36 70.6764 38.3633 70.6309 38.3633C70.5853 38.3633 70.5169 38.3828 70.4258 38.4219C70.2956 38.3438 70.1784 38.2526 70.0742 38.1484C69.9766 38.0508 69.8822 37.9466 69.791 37.8359C69.7064 37.7188 69.6217 37.6016 69.5371 37.4844C69.4525 37.3607 69.3613 37.2435 69.2637 37.1328C68.9251 37.2174 68.5768 37.276 68.2188 37.3086C67.8672 37.3346 67.5156 37.3477 67.1641 37.3477C67.151 37.3607 67.1315 37.3672 67.1055 37.3672C67.0794 37.3672 67.0534 37.3704 67.0273 37.377C67.0078 37.377 66.9883 37.3835 66.9688 37.3965C66.9557 37.403 66.9525 37.4193 66.959 37.4453C66.9134 37.4193 66.8613 37.403 66.8027 37.3965C66.7507 37.3835 66.7018 37.377 66.6562 37.377C66.6237 37.377 66.5911 37.3802 66.5586 37.3867C66.526 37.3867 66.4935 37.3965 66.4609 37.416C66.2135 37.3704 65.9727 37.3086 65.7383 37.2305C65.5104 37.1458 65.276 37.0775 65.0352 37.0254C65.0352 36.9733 65.0221 36.9375 64.9961 36.918C64.9701 36.8919 64.9473 36.8561 64.9277 36.8105C64.6543 36.6413 64.4232 36.4362 64.2344 36.1953C64.0521 35.9544 63.9772 35.6615 64.0098 35.3164L63.9414 35.1797C63.9414 35.0755 63.9642 35.0007 64.0098 34.9551C63.9837 34.9095 63.9382 34.8639 63.873 34.8184C63.9316 34.7272 63.9837 34.6328 64.0293 34.5352C64.0749 34.4375 64.1074 34.3333 64.127 34.2227C64.1335 34.1901 64.1367 34.1608 64.1367 34.1348C64.1367 34.1087 64.1432 34.0794 64.1562 34.0469C64.1693 34.0078 64.1888 33.9655 64.2148 33.9199C64.2344 33.8678 64.2539 33.8223 64.2734 33.7832C64.3776 33.5618 64.4915 33.3503 64.6152 33.1484C64.7454 32.9401 64.9082 32.7611 65.1035 32.6113C65.1165 32.5007 65.1491 32.4095 65.2012 32.3379C65.2533 32.2598 65.3086 32.1914 65.3672 32.1328C65.4323 32.0677 65.4941 32.0026 65.5527 31.9375C65.6178 31.8724 65.6667 31.7943 65.6992 31.7031C65.8294 31.5924 65.9596 31.485 66.0898 31.3809C66.2266 31.2767 66.3405 31.153 66.4316 31.0098C66.5488 30.9707 66.6595 30.9219 66.7637 30.8633C66.8678 30.7982 66.9557 30.7168 67.0273 30.6191C67.1836 30.6061 67.3366 30.5768 67.4863 30.5312C67.6426 30.4857 67.8053 30.4629 67.9746 30.4629C68.0462 30.4629 68.1309 30.4792 68.2285 30.5117C68.3327 30.5378 68.4108 30.5866 68.4629 30.6582C68.4694 30.6712 68.4727 30.6875 68.4727 30.707L68.4824 30.7559C68.4889 30.7689 68.4954 30.7819 68.502 30.7949C68.515 30.8014 68.5345 30.8014 68.5605 30.7949C68.5605 30.9382 68.5443 31.0846 68.5117 31.2344C68.4792 31.3776 68.3945 31.4883 68.2578 31.5664C68.1732 31.5404 68.082 31.5273 67.9844 31.5273C67.8542 31.5273 67.7337 31.5534 67.623 31.6055C67.5189 31.651 67.4147 31.7064 67.3105 31.7715C67.2129 31.8301 67.112 31.8919 67.0078 31.957C66.9036 32.0156 66.793 32.0579 66.6758 32.084C66.6628 32.1361 66.6497 32.1849 66.6367 32.2305C66.6302 32.2695 66.6335 32.3151 66.6465 32.3672C66.6139 32.3672 66.5879 32.3639 66.5684 32.3574C66.5553 32.3444 66.5326 32.3379 66.5 32.3379C66.4544 32.3379 66.4219 32.3639 66.4023 32.416C66.3893 32.4681 66.3763 32.5104 66.3633 32.543C66.2396 32.5951 66.1354 32.6699 66.0508 32.7676C65.9727 32.8587 65.8978 32.9596 65.8262 33.0703C65.7611 33.1745 65.6895 33.2754 65.6113 33.373C65.5332 33.4707 65.4355 33.5456 65.3184 33.5977C65.2663 33.806 65.2142 34.0111 65.1621 34.2129C65.1165 34.4147 65.0612 34.6165 64.9961 34.8184C65.0156 34.8965 65.0254 34.9779 65.0254 35.0625C65.0254 35.1667 65.0156 35.2611 64.9961 35.3457C65.0286 35.3978 65.0612 35.4596 65.0938 35.5312L65.2109 35.7559C65.25 35.834 65.2891 35.9056 65.3281 35.9707C65.3737 36.0358 65.416 36.0846 65.4551 36.1172C65.5267 36.1693 65.6374 36.2181 65.7871 36.2637C65.9368 36.3027 66.0703 36.3711 66.1875 36.4688C66.2005 36.4688 66.2168 36.4688 66.2363 36.4688C66.2559 36.4622 66.2721 36.459 66.2852 36.459C66.3633 36.459 66.4479 36.4785 66.5391 36.5176C66.6302 36.5566 66.6888 36.5762 66.7148 36.5762C67.0794 36.5762 67.4766 36.5534 67.9062 36.5078C68.3359 36.4557 68.7331 36.3939 69.0977 36.3223C69.1107 36.2572 69.1172 36.2018 69.1172 36.1562C69.1172 36.0716 69.1042 35.9902 69.0781 35.9121C69.0521 35.8275 69.0098 35.7559 68.9512 35.6973C68.9512 35.5996 68.9512 35.502 68.9512 35.4043C68.9577 35.3066 68.9609 35.209 68.9609 35.1113C68.9609 34.9486 68.9544 34.776 68.9414 34.5938C68.9284 34.4115 68.8958 34.2422 68.8438 34.0859H68.8242C68.7396 34.0859 68.6615 34.1087 68.5898 34.1543C68.5247 34.1934 68.4564 34.2129 68.3848 34.2129C68.3457 34.2129 68.3132 34.2031 68.2871 34.1836C68.209 34.2747 68.1146 34.3431 68.0039 34.3887C67.8932 34.4342 67.776 34.4766 67.6523 34.5156C67.5286 34.5482 67.4049 34.584 67.2812 34.623C67.1641 34.6621 67.0566 34.7174 66.959 34.7891C66.9069 34.7695 66.8581 34.7598 66.8125 34.7598C66.7669 34.7598 66.7214 34.763 66.6758 34.7695C66.6367 34.776 66.5911 34.7826 66.5391 34.7891C66.4023 34.6719 66.334 34.5254 66.334 34.3496C66.334 34.2585 66.347 34.1706 66.373 34.0859C66.4056 33.9948 66.4479 33.9102 66.5 33.832C66.5326 33.8125 66.5716 33.8027 66.6172 33.8027C66.6628 33.7962 66.7083 33.7897 66.7539 33.7832C66.7995 33.7702 66.8353 33.7539 66.8613 33.7344C66.8939 33.7148 66.9134 33.679 66.9199 33.627C66.9395 33.6465 66.9557 33.6562 66.9688 33.6562C66.9818 33.6562 66.9948 33.653 67.0078 33.6465C67.0208 33.64 67.0339 33.6367 67.0469 33.6367C67.0599 33.6367 67.0697 33.6432 67.0762 33.6562C67.0892 33.6693 67.0957 33.6823 67.0957 33.6953C67.3757 33.5456 67.6621 33.4186 67.9551 33.3145C68.248 33.2103 68.5443 33.1159 68.8438 33.0312C69.1497 32.9466 69.4557 32.8685 69.7617 32.7969C70.0677 32.7188 70.3704 32.6341 70.6699 32.543C70.7155 32.5039 70.7643 32.4746 70.8164 32.4551C70.8685 32.4355 70.9141 32.4062 70.9531 32.3672C70.9987 32.3932 71.054 32.4062 71.1191 32.4062C71.2103 32.4062 71.3079 32.39 71.4121 32.3574C71.5228 32.3184 71.6139 32.2728 71.6855 32.2207C71.7116 32.2272 71.7344 32.2305 71.7539 32.2305H71.8223C71.9525 32.2305 72.0729 32.2109 72.1836 32.1719C72.3008 32.1328 72.4147 32.0807 72.5254 32.0156H72.5742C72.776 32.0156 72.9746 31.9928 73.1699 31.9473C73.3717 31.9017 73.5768 31.8789 73.7852 31.8789C74.0521 31.8789 74.2865 31.9473 74.4883 32.084V32.2012C74.4883 32.2533 74.4883 32.3021 74.4883 32.3477C74.4948 32.3867 74.5078 32.429 74.5273 32.4746ZM77.7988 33.3145C77.7728 33.3796 77.7467 33.4414 77.7207 33.5C77.6947 33.5586 77.6751 33.6237 77.6621 33.6953C77.6165 33.7279 77.5645 33.7539 77.5059 33.7734C77.4538 33.7865 77.3984 33.8027 77.3398 33.8223C77.2812 33.8353 77.2259 33.8548 77.1738 33.8809C77.1283 33.9004 77.0924 33.9329 77.0664 33.9785C77.0469 34.0762 77.0371 34.1673 77.0371 34.252C77.0371 34.3626 77.0566 34.457 77.0957 34.5352C77.0762 34.5938 77.0632 34.6556 77.0566 34.7207C77.0501 34.7858 77.0469 34.8477 77.0469 34.9062C77.0469 35.1211 77.0729 35.3359 77.125 35.5508C77.1771 35.7591 77.2064 35.9707 77.2129 36.1855C77.2129 36.2181 77.2096 36.2539 77.2031 36.293C77.1966 36.332 77.1934 36.3678 77.1934 36.4004C77.1934 36.5371 77.2454 36.6283 77.3496 36.6738C77.3301 36.7064 77.3203 36.7357 77.3203 36.7617C77.3203 36.8138 77.3268 36.8594 77.3398 36.8984C77.3529 36.9375 77.3561 36.9798 77.3496 37.0254C77.3822 37.0905 77.4147 37.1491 77.4473 37.2012C77.4798 37.2467 77.5026 37.3053 77.5156 37.377C77.4701 37.4681 77.4147 37.5527 77.3496 37.6309C77.2845 37.7025 77.2389 37.7936 77.2129 37.9043C77.1868 37.8978 77.1576 37.8945 77.125 37.8945C77.0794 37.8945 77.0436 37.9043 77.0176 37.9238C76.9915 37.9434 76.9688 37.9661 76.9492 37.9922C76.9362 38.0247 76.9199 38.054 76.9004 38.0801C76.8809 38.1126 76.8548 38.1354 76.8223 38.1484H76.793C76.7604 38.1549 76.7311 38.1517 76.7051 38.1387C76.6855 38.1322 76.666 38.1289 76.6465 38.1289C76.6335 38.1289 76.6074 38.1354 76.5684 38.1484C76.5163 38.0833 76.4805 38.0052 76.4609 37.9141C76.4414 37.8294 76.4316 37.7448 76.4316 37.6602C76.4316 37.569 76.4447 37.4876 76.4707 37.416C76.3991 37.3574 76.3535 37.2695 76.334 37.1523C76.321 37.0352 76.3047 36.9375 76.2852 36.8594C76.2331 36.6185 76.1712 36.3841 76.0996 36.1562C76.0345 35.9284 75.9954 35.694 75.9824 35.4531C75.9759 35.362 75.9727 35.2741 75.9727 35.1895V34.6816C75.9727 34.597 75.9759 34.5156 75.9824 34.4375C75.9824 34.3789 75.9857 34.3236 75.9922 34.2715C76.0052 34.2129 76.0117 34.1543 76.0117 34.0957C76.0117 34.0176 75.9857 33.9427 75.9336 33.8711C75.4714 33.8906 75.0319 33.9753 74.6152 34.125C74.2051 34.2682 73.7949 34.4408 73.3848 34.6426C73.3587 34.7923 73.3424 34.9388 73.3359 35.082C73.3294 35.2253 73.3262 35.3717 73.3262 35.5215V35.9512C73.3262 36.1139 73.3327 36.2507 73.3457 36.3613C73.3783 36.5501 73.4727 36.6966 73.6289 36.8008C73.7917 36.8984 73.9544 36.9733 74.1172 37.0254C74.1107 37.123 74.0911 37.2077 74.0586 37.2793C74.026 37.3444 73.9837 37.4062 73.9316 37.4648C73.8861 37.5169 73.834 37.569 73.7754 37.6211C73.7168 37.6732 73.6582 37.7318 73.5996 37.7969C73.5475 37.7643 73.4954 37.7415 73.4434 37.7285C73.3913 37.7155 73.3359 37.709 73.2773 37.709C73.2188 37.7025 73.1602 37.696 73.1016 37.6895C73.043 37.6829 72.9844 37.6699 72.9258 37.6504L72.7109 37.3574C72.6393 37.2598 72.5612 37.1621 72.4766 37.0645V36.9766C72.4766 36.8008 72.444 36.6315 72.3789 36.4688C72.3138 36.306 72.265 36.14 72.2324 35.9707C72.252 35.9121 72.265 35.8535 72.2715 35.7949C72.278 35.7363 72.2812 35.6745 72.2812 35.6094C72.2812 35.4792 72.2747 35.3522 72.2617 35.2285C72.2552 35.1048 72.2585 34.9811 72.2715 34.8574H72.2227C72.1641 34.8574 72.1022 34.8737 72.0371 34.9062C71.972 34.9323 71.9069 34.9648 71.8418 35.0039C71.7832 35.0365 71.7246 35.069 71.666 35.1016C71.6139 35.1276 71.5684 35.1406 71.5293 35.1406C71.5098 35.1406 71.4902 35.1374 71.4707 35.1309C71.4512 35.1243 71.4284 35.1211 71.4023 35.1211C71.3698 35.1211 71.3307 35.1341 71.2852 35.1602C71.2396 35.1862 71.1908 35.2155 71.1387 35.248C71.0801 35.2741 71.0215 35.3001 70.9629 35.3262C70.9043 35.3522 70.8457 35.3652 70.7871 35.3652C70.696 35.3652 70.6048 35.3262 70.5137 35.248C70.5007 35.196 70.4974 35.1471 70.5039 35.1016C70.5039 35.056 70.5039 35.0072 70.5039 34.9551C70.5039 34.903 70.4941 34.8477 70.4746 34.7891C70.5202 34.7044 70.582 34.6393 70.6602 34.5938C70.7318 34.5417 70.8099 34.4961 70.8945 34.457C70.9727 34.4115 71.054 34.3691 71.1387 34.3301C71.2233 34.2845 71.2949 34.2259 71.3535 34.1543H71.4121C71.5033 34.1543 71.5846 34.1348 71.6562 34.0957C71.7344 34.0566 71.8223 34.0404 71.9199 34.0469C71.9525 34.0339 71.9753 33.985 71.9883 33.9004L72.0273 33.9102C72.1706 33.9102 72.2975 33.8613 72.4082 33.7637C72.4798 33.36 72.5384 32.9531 72.584 32.543C72.6296 32.1328 72.6523 31.7227 72.6523 31.3125C72.6523 31.2734 72.6393 31.2344 72.6133 31.1953C72.6003 31.1432 72.5938 31.0944 72.5938 31.0488V30.9023C72.5938 30.8307 72.597 30.7559 72.6035 30.6777C72.61 30.5996 72.6263 30.5215 72.6523 30.4434C72.7174 30.4043 72.7858 30.3848 72.8574 30.3848C72.9421 30.3848 73.0234 30.3978 73.1016 30.4238C73.1862 30.4434 73.2676 30.4596 73.3457 30.4727C73.4043 30.5312 73.4466 30.5964 73.4727 30.668C73.5052 30.7396 73.5247 30.8145 73.5312 30.8926C73.5378 30.9642 73.5378 31.0391 73.5312 31.1172C73.5312 31.1888 73.5312 31.2604 73.5312 31.332C73.5312 31.4753 73.5475 31.6152 73.5801 31.752C73.6126 31.8887 73.6289 32.0221 73.6289 32.1523C73.6289 32.1849 73.6159 32.2109 73.5898 32.2305C73.5703 32.2435 73.5605 32.2858 73.5605 32.3574C73.5605 32.429 73.5671 32.5039 73.5801 32.582C73.5931 32.6602 73.5996 32.7383 73.5996 32.8164C73.5996 32.9076 73.5866 33.002 73.5605 33.0996C73.5345 33.1973 73.5117 33.2917 73.4922 33.3828C73.8828 33.3503 74.2832 33.3014 74.6934 33.2363C75.1035 33.1712 75.4941 33.0671 75.8652 32.9238C75.8717 32.9108 75.875 32.8913 75.875 32.8652C75.875 32.8262 75.8717 32.7871 75.8652 32.748C75.8587 32.709 75.8555 32.6667 75.8555 32.6211C75.8555 32.543 75.8815 32.4811 75.9336 32.4355C75.901 32.2533 75.8783 32.071 75.8652 31.8887C75.8522 31.7064 75.8457 31.5241 75.8457 31.3418V30.7852C75.8457 30.6029 75.8424 30.4206 75.8359 30.2383C75.888 30.2057 75.9434 30.1895 76.002 30.1895C76.0736 30.1895 76.1387 30.209 76.1973 30.248C76.2624 30.2806 76.3372 30.2969 76.4219 30.2969C76.4805 30.2969 76.5293 30.2871 76.5684 30.2676C76.64 30.3327 76.6888 30.4173 76.7148 30.5215C76.7409 30.6257 76.7637 30.7331 76.7832 30.8438C76.8027 30.9544 76.8223 31.0651 76.8418 31.1758C76.8678 31.2799 76.9167 31.3646 76.9883 31.4297L76.998 31.459C76.998 31.485 76.985 31.5046 76.959 31.5176C76.9329 31.5306 76.9199 31.5566 76.9199 31.5957V31.6348C76.946 31.7389 76.9655 31.8464 76.9785 31.957C76.9915 32.0677 77.0013 32.1816 77.0078 32.2988C77.0208 32.4095 77.0371 32.5202 77.0566 32.6309C77.0762 32.735 77.112 32.8327 77.1641 32.9238C77.1966 32.9173 77.2389 32.9141 77.291 32.9141C77.4212 32.9141 77.5221 32.9596 77.5938 33.0508C77.6719 33.1354 77.7402 33.2233 77.7988 33.3145ZM86.832 31.5957C86.806 31.6803 86.7637 31.7585 86.7051 31.8301L86.5391 32.0352C86.487 32.1003 86.4414 32.1719 86.4023 32.25C86.3698 32.3216 86.36 32.4062 86.373 32.5039C86.36 32.5039 86.3438 32.5039 86.3242 32.5039C86.3047 32.4974 86.2884 32.4941 86.2754 32.4941C86.1712 32.4941 86.0898 32.5202 86.0312 32.5723C85.9792 32.6178 85.9076 32.6569 85.8164 32.6895C85.8034 32.6504 85.7871 32.6146 85.7676 32.582C85.748 32.543 85.7188 32.5169 85.6797 32.5039C85.5234 32.5365 85.3672 32.5625 85.2109 32.582C85.0547 32.5951 84.8984 32.6146 84.7422 32.6406C84.6706 32.6536 84.599 32.6732 84.5273 32.6992C84.4557 32.7188 84.3809 32.7383 84.3027 32.7578C84.2637 32.7708 84.2214 32.7773 84.1758 32.7773C84.1302 32.7708 84.0846 32.7708 84.0391 32.7773C83.8828 32.7839 83.7135 32.7969 83.5312 32.8164C83.349 32.8294 83.1862 32.8783 83.043 32.9629C82.9779 32.9499 82.9095 32.9401 82.8379 32.9336C82.7663 32.9271 82.6947 32.9238 82.623 32.9238C82.4668 32.9238 82.2943 32.9401 82.1055 32.9727C81.9232 32.9987 81.7604 33.054 81.6172 33.1387C81.5846 33.1257 81.5488 33.1159 81.5098 33.1094C81.4772 33.1029 81.4382 33.0996 81.3926 33.0996C81.3796 33.0996 81.3698 33.1029 81.3633 33.1094C81.3568 33.1094 81.347 33.1094 81.334 33.1094C81.3275 33.168 81.334 33.2266 81.3535 33.2852C81.3796 33.3372 81.4219 33.3796 81.4805 33.4121C81.4544 33.4837 81.4414 33.5618 81.4414 33.6465C81.4414 33.7572 81.4479 33.8678 81.4609 33.9785C81.4805 34.0892 81.4902 34.1999 81.4902 34.3105C81.4902 34.4342 81.474 34.5319 81.4414 34.6035C81.5065 34.7988 81.5391 35.0072 81.5391 35.2285C81.5391 35.3066 81.5326 35.3848 81.5195 35.4629C81.513 35.5345 81.5098 35.6126 81.5098 35.6973C81.5098 35.7689 81.5358 35.8275 81.5879 35.873C81.64 35.9121 81.666 35.9674 81.666 36.0391C81.666 36.0651 81.6595 36.0911 81.6465 36.1172C81.7376 36.0977 81.8255 36.0716 81.9102 36.0391C81.9948 36 82.0827 35.9805 82.1738 35.9805C82.2259 35.9805 82.2747 35.9902 82.3203 36.0098C82.3724 36.0293 82.418 36.0553 82.457 36.0879C82.4505 36.1204 82.444 36.1562 82.4375 36.1953C82.4375 36.2344 82.4375 36.2734 82.4375 36.3125C82.4375 36.3841 82.4375 36.4525 82.4375 36.5176C82.444 36.5762 82.4505 36.6413 82.457 36.7129C82.4049 36.804 82.3431 36.8854 82.2715 36.957C82.2064 37.0286 82.1608 37.1198 82.1348 37.2305C82.0371 37.2305 81.9492 37.2533 81.8711 37.2988C81.7995 37.3379 81.7311 37.3835 81.666 37.4355C81.6009 37.4811 81.5358 37.5267 81.4707 37.5723C81.4056 37.6113 81.334 37.6309 81.2559 37.6309C81.1582 37.6309 81.0898 37.6178 81.0508 37.5918C81.0117 37.5592 80.9824 37.5267 80.9629 37.4941C80.9434 37.4616 80.9238 37.4323 80.9043 37.4062C80.8913 37.3802 80.8587 37.3704 80.8066 37.377C80.7936 37.2923 80.7676 37.2142 80.7285 37.1426C80.6895 37.0645 80.6471 36.9896 80.6016 36.918C80.5625 36.8464 80.5202 36.7747 80.4746 36.7031C80.4355 36.625 80.4062 36.5469 80.3867 36.4688C80.3477 36.2995 80.3314 36.1237 80.3379 35.9414C80.3444 35.7591 80.3151 35.5833 80.25 35.4141C80.263 35.3229 80.2728 35.2318 80.2793 35.1406C80.2858 35.043 80.2891 34.9486 80.2891 34.8574C80.2891 34.6751 80.2826 34.4961 80.2695 34.3203C80.263 34.138 80.2565 33.9525 80.25 33.7637C80.2044 33.7051 80.1751 33.64 80.1621 33.5684C80.1556 33.4902 80.1491 33.4154 80.1426 33.3438C80.123 33.3242 80.1003 33.3047 80.0742 33.2852C80.0547 33.2656 80.0417 33.2396 80.0352 33.207C79.9831 33.194 79.944 33.1875 79.918 33.1875C79.8268 33.1875 79.7487 33.2103 79.6836 33.2559C79.625 33.2949 79.5697 33.3145 79.5176 33.3145C79.4655 33.3145 79.4167 33.3079 79.3711 33.2949C79.3255 33.2819 79.2799 33.2754 79.2344 33.2754C79.1953 33.2754 79.1725 33.2852 79.166 33.3047C79.166 33.3177 79.153 33.3307 79.127 33.3438C79.1074 33.3568 79.0618 33.3698 78.9902 33.3828C78.9186 33.3958 78.8372 33.4089 78.7461 33.4219C78.6615 33.4284 78.5768 33.4349 78.4922 33.4414C78.4141 33.4479 78.362 33.4512 78.3359 33.4512C78.2318 33.4512 78.1536 33.4316 78.1016 33.3926C78.043 33.347 77.9746 33.2982 77.8965 33.2461C77.9095 33.207 77.916 33.181 77.916 33.168C77.916 33.1029 77.8965 33.0508 77.8574 33.0117C77.8184 32.9661 77.7988 32.9271 77.7988 32.8945C77.7988 32.8229 77.8281 32.7676 77.8867 32.7285C77.9388 32.6895 77.9681 32.6276 77.9746 32.543C78.1243 32.4779 78.2773 32.429 78.4336 32.3965C78.5898 32.3639 78.7493 32.3379 78.9121 32.3184C79.0749 32.2988 79.2344 32.276 79.3906 32.25C79.5534 32.224 79.7129 32.1816 79.8691 32.123C79.9147 32.1296 79.957 32.1361 79.9961 32.1426C80.0417 32.1426 80.0872 32.1426 80.1328 32.1426C80.3281 32.1426 80.5202 32.123 80.709 32.084C80.9043 32.0384 81.1029 32.0156 81.3047 32.0156C81.3568 32.0156 81.4089 32.0189 81.4609 32.0254C81.513 32.0319 81.5651 32.0417 81.6172 32.0547C81.8776 32.0156 82.1348 31.9733 82.3887 31.9277C82.6491 31.8822 82.916 31.8431 83.1895 31.8105C83.3197 31.7975 83.4466 31.7878 83.5703 31.7812C83.7005 31.7682 83.8307 31.752 83.9609 31.7324C84.0065 31.7259 84.0391 31.7161 84.0586 31.7031C84.0846 31.6836 84.0977 31.6478 84.0977 31.5957C84.1562 31.6217 84.2214 31.6348 84.293 31.6348C84.4036 31.6348 84.5111 31.6152 84.6152 31.5762C84.7194 31.5371 84.8268 31.5176 84.9375 31.5176C84.9635 31.5176 84.9863 31.5208 85.0059 31.5273C85.0254 31.5273 85.0449 31.5273 85.0645 31.5273C85.11 31.5273 85.1328 31.5078 85.1328 31.4688C85.1393 31.4232 85.1719 31.3939 85.2305 31.3809C85.276 31.3678 85.3411 31.3581 85.4258 31.3516C85.5104 31.3451 85.5983 31.3385 85.6895 31.332C85.7871 31.319 85.875 31.306 85.9531 31.293C86.0378 31.2734 86.0996 31.2474 86.1387 31.2148L86.207 31.1074C86.3242 31.1139 86.4089 31.166 86.4609 31.2637C86.5195 31.3548 86.5521 31.4557 86.5586 31.5664C86.5846 31.5924 86.6204 31.6055 86.666 31.6055C86.7181 31.599 86.7637 31.5957 86.8027 31.5957H86.832ZM90.6309 36.6445C90.6309 36.7552 90.6016 36.8529 90.543 36.9375C90.4909 37.0156 90.4714 37.1133 90.4844 37.2305C90.3932 37.2826 90.3184 37.3509 90.2598 37.4355C90.2012 37.5202 90.1458 37.6081 90.0938 37.6992C89.6641 37.9792 89.2018 38.2038 88.707 38.373C88.2188 38.5488 87.7142 38.6367 87.1934 38.6367C87.1608 38.6367 87.1315 38.6204 87.1055 38.5879C87.0794 38.5618 87.0534 38.5326 87.0273 38.5C87.0013 38.4674 86.972 38.4349 86.9395 38.4023C86.9134 38.3763 86.8809 38.3633 86.8418 38.3633C86.7962 38.3633 86.7604 38.373 86.7344 38.3926C86.7344 38.3796 86.7344 38.3665 86.7344 38.3535C86.7409 38.347 86.7441 38.3372 86.7441 38.3242C86.7441 38.2461 86.7344 38.1647 86.7148 38.0801C86.6953 38.002 86.6855 37.9238 86.6855 37.8457C86.6855 37.7546 86.7018 37.6797 86.7344 37.6211H86.8516C86.9167 37.6211 86.9785 37.6178 87.0371 37.6113C87.1022 37.5983 87.1706 37.5918 87.2422 37.5918C87.3138 37.5918 87.3789 37.6113 87.4375 37.6504C87.7956 37.6374 88.1341 37.5723 88.4531 37.4551C88.7786 37.3314 89.1074 37.2109 89.4395 37.0938C89.4915 37.0221 89.5208 36.944 89.5273 36.8594C89.5404 36.7682 89.5664 36.6836 89.6055 36.6055C89.4362 36.4622 89.2637 36.3516 89.0879 36.2734C88.9186 36.1888 88.7201 36.1595 88.4922 36.1855C88.3555 36.1009 88.209 36.0521 88.0527 36.0391C87.903 36.026 87.75 36.0065 87.5938 35.9805C87.5547 35.974 87.5124 35.9674 87.4668 35.9609C87.4277 35.9479 87.3854 35.9414 87.3398 35.9414C87.3073 35.9414 87.2747 35.9512 87.2422 35.9707C87.2161 35.9837 87.2096 36.0065 87.2227 36.0391C87.1901 35.987 87.1445 35.9577 87.0859 35.9512C87.0339 35.9382 86.9883 35.9121 86.9492 35.873C86.7409 35.86 86.5586 35.8242 86.4023 35.7656C86.2461 35.7005 86.0736 35.6289 85.8848 35.5508C85.8327 35.5312 85.7806 35.5182 85.7285 35.5117C85.6829 35.4987 85.6374 35.4792 85.5918 35.4531C85.4746 35.3945 85.3802 35.3164 85.3086 35.2188C85.237 35.1211 85.1816 35.0137 85.1426 34.8965C85.097 34.7728 85.0645 34.6458 85.0449 34.5156C85.0254 34.3854 85.0059 34.265 84.9863 34.1543C85.0449 34.0501 85.1003 33.9427 85.1523 33.832C85.1979 33.7214 85.237 33.6042 85.2695 33.4805C85.3086 33.4609 85.3477 33.4447 85.3867 33.4316C85.4258 33.4186 85.4681 33.4023 85.5137 33.3828C85.5072 33.3698 85.5039 33.3535 85.5039 33.334C85.5039 33.3014 85.5137 33.2689 85.5332 33.2363C85.5592 33.2038 85.5658 33.1712 85.5527 33.1387C85.696 33.0085 85.8327 32.875 85.9629 32.7383C86.0996 32.5951 86.2168 32.4388 86.3145 32.2695C86.4121 32.237 86.4902 32.1882 86.5488 32.123C86.6074 32.0579 86.666 31.9928 86.7246 31.9277C86.7832 31.8561 86.8483 31.7943 86.9199 31.7422C86.9915 31.6836 87.0827 31.6478 87.1934 31.6348C87.2194 31.5892 87.2552 31.5534 87.3008 31.5273C87.3464 31.4948 87.3919 31.4655 87.4375 31.4395C87.4831 31.4134 87.5254 31.3841 87.5645 31.3516C87.6035 31.319 87.6328 31.2734 87.6523 31.2148C87.7565 31.2148 87.8509 31.1953 87.9355 31.1562C88.0267 31.1172 88.1146 31.0749 88.1992 31.0293C88.2839 30.9837 88.3685 30.9414 88.4531 30.9023C88.5443 30.8633 88.6419 30.8438 88.7461 30.8438C88.7721 30.8438 88.7982 30.847 88.8242 30.8535C88.8503 30.8535 88.8796 30.8568 88.9121 30.8633C88.9577 30.9089 88.987 30.9642 89 31.0293C89.0195 31.0879 89.0326 31.153 89.0391 31.2246C89.0456 31.2962 89.0488 31.3678 89.0488 31.4395C89.0553 31.5111 89.0684 31.5762 89.0879 31.6348C89.0293 31.7454 88.9642 31.8561 88.8926 31.9668C88.8275 32.0775 88.7396 32.1621 88.6289 32.2207H88.6094C88.5638 32.2272 88.5215 32.2174 88.4824 32.1914C88.4434 32.1654 88.3978 32.1523 88.3457 32.1523C88.3132 32.1523 88.2871 32.1621 88.2676 32.1816L88.2188 32.2305C88.2057 32.2435 88.1862 32.2565 88.1602 32.2695C88.1406 32.2826 88.1113 32.2826 88.0723 32.2695C87.9811 32.3021 87.9453 32.3574 87.9648 32.4355C87.8411 32.4486 87.737 32.4876 87.6523 32.5527C87.5677 32.6113 87.4896 32.6797 87.418 32.7578C87.3464 32.8294 87.2747 32.8978 87.2031 32.9629C87.1315 33.0215 87.0469 33.054 86.9492 33.0605C86.8385 33.2559 86.7018 33.4284 86.5391 33.5781C86.3828 33.7279 86.2526 33.8971 86.1484 34.0859C86.168 34.138 86.181 34.1934 86.1875 34.252C86.194 34.3105 86.2038 34.3724 86.2168 34.4375C86.2754 34.5156 86.3438 34.584 86.4219 34.6426C86.5065 34.7012 86.5879 34.7598 86.666 34.8184H86.6953C86.8255 34.8184 86.946 34.8444 87.0566 34.8965C87.1673 34.9421 87.2845 34.9648 87.4082 34.9648C87.4733 34.9648 87.5286 34.9518 87.5742 34.9258C87.7435 34.9648 87.9095 34.9974 88.0723 35.0234C88.2415 35.0495 88.4108 35.069 88.5801 35.082C88.6647 35.0951 88.7493 35.1016 88.834 35.1016C88.9251 35.1016 89.0098 35.1113 89.0879 35.1309C89.1595 35.1504 89.2311 35.1764 89.3027 35.209C89.3743 35.235 89.446 35.2643 89.5176 35.2969C89.6673 35.362 89.8073 35.4336 89.9375 35.5117C90.0742 35.5898 90.1947 35.6842 90.2988 35.7949C90.403 35.8991 90.4844 36.0228 90.543 36.166C90.6016 36.3027 90.6309 36.4622 90.6309 36.6445Z" fill="#20ACE9"/>
<rect x="0.623779" y="0.5" width="105" height="52" stroke="black"/>
<rect x="0.623779" y="0.5" width="105" height="52" stroke="black" stroke-opacity="0.2"/>
</svg>
